<?xml version="1.0" encoding="UTF-8" standalone="no"?>
<!DOCTYPE svg PUBLIC "-//W3C//DTD SVG 1.1//EN" "http://www.w3.org/Graphics/SVG/1.1/DTD/svg11.dtd">
<svg xmlns="http://www.w3.org/2000/svg" xmlns:xlink="http://www.w3.org/1999/xlink" version="1.1" width="612pt" height="792pt" viewBox="0 0 612 792">
<g enable-background="new">
<text xml:space="preserve" transform="matrix(1 0 -0 1 0 792)" font-size="14.3462" font-family="CMBX12" font-weight="bold"><tspan y="-710.037" x="72 96.216388 102.22744 110.749088 117.03272 123.63197 132.15361 141.11998 150.08635 157.25945 163.54308 168.03343 176.11034">1Introduction</tspan></text>
<text xml:space="preserve" transform="matrix(1 0 -0 1 0 792)" font-size="9.9626" font-family="CMR10"><tspan y="-688.216" x="72 78.22662 86.136928 91.2577 95.68109 104.70721 110.246417 114.66981 122.09194 129.56389 137.86273 142.84403 147.26743 152.24872 157.78792 162.21132 169.62349 173.54875 181.45906 184.50762 189.4889 195.0281 202.93842 207.36182 212.62207 216.49753 220.40287 228.32314 236.79134 239.83989 244.82118 250.36038 254.78379 260.323 264.22834 271.6405 277.45869 282.43998 286.36524 290.01155 290.29048 294.71388 300.25309 305.23439 310.49464 317.857 322.00144 327.54066 332.52195 336.94535 342.48457 351.51069 359.98887 363.88426 368.3176 371.0872 376.61647 381.0498 388.46199 392.38725 397.92646 405.3187 410.8579 419.88404 425.42326 428.19285 433.17414 437.0496 441.473 446.45429 455.4804 461.01963 468.92994 473.91123 478.89253 484.15278 489.13407 497.60227 502.02568 507.00697 510.93223 515.3556 519.2809 526.98196 534.45388">LeJeudesAmazonessejoueentre2joueursposs&#x00b4;edantchacun4reinessurunplateaude10x10cases.Un</tspan><tspan y="-676.261" x="72 75.04855 80.029857 85.56906 89.992458 95.53166 103.48182 109.02103 114.00233 116.77193 124.69219 127.46179 132.44309 136.34842 144.3185 149.8577 158.31595 162.24121 167.2225 176.80652 180.68198 185.66327 191.20247 195.1078 202.10155 207.3618 207.64075 212.06415 217.60335 220.37296 225.35425 229.77765 234.20105 242.1512 247.6904 253.2296 261.6978 267.23704 275.70527 279.63053 284.05393 292.02403 295.92936 300.35276 303.12236 308.66157 313.08497 321.05506 326.59428 332.13349 334.90309 342.87318 345.64277 351.18199 357.9964 361.04496 366.02626 368.79585 372.70118 381.1694 385.04487 387.8045 391.70985 396.13325 404.0834 409.62263 415.16184 423.63008 428.89033 429.16926 433.59266 437.74708 443.27635 447.7097 457.07453 464.40699 464.6859 469.1093 474.64854 477.41813 482.3994 486.8228 491.24623 499.54508 503.96849 509.22874 517.149 521.5724 529.4926 533.36807 536.13766">joueurdoitlorsdesontour,d&#x00b4;eplacerunedesesreinespuisluifairetirerune&#xfb02;`eche.D&#x00b4;eplacementettir</tspan><tspan y="-664.30599" x="72 75.92526 84.10455 87.15311 92.13441 97.404628 105.03597 108.084529 113.62373 117.548999 122.80925 128.34845 131.11806 131.11806 139.85526 145.39446 150.93366 159.11296 163.53636 168.51766 172.44292 180.63219 183.4018 186.1714 191.7106 195.61594 203.79524 209.33444 214.31574 219.85494 227.5361 230.30571 234.72911 242.41028 247.94948 250.71909 254.62442 259.04783 263.47123 267.34669 270.11628 275.09757 280.63679 288.3279 292.7513 297.7326 301.63795 307.17716 309.94676 315.48597 320.46726 323.23686 327.66026 335.3414 339.7648 347.39616 350.16575 355.426 359.30146 363.7348 367.6302 370.95768 375.38108 380.36238 384.2677 389.80693 392.56657 398.10578 403.08708 405.85667 410.28007 417.9712 423.5104 426.28 431.2613 436.8005 440.67597 445.65727 450.9175 458.54887 464.08808 472.26737 476.69078 481.682 485.60728 490.03068 497.71183 500.4814 503.251 508.79023 512.69558 517.11898 524.8002 530.0604 535.5996">sefontjusqu&#x2019;`aunecaselibredanslesdirectionscardinalesetinter-cardinalesd&#x2019;autantdecaseslibresque</tspan><tspan y="-652.35098" x="72 77.260257 77.53921 81.9626 85.88786 88.65746 92.28385 92.562808 96.9862 101.40959 105.334857 112.53781 118.764438 126.50537 131.48667 136.46796 141.44925 146.98845 151.96974 157.23 164.423 168.8464 172.78163 179.97464 182.74425 190.4852 193.53376 198.51505 204.05425 208.47765 214.01685 221.23973 226.49999 232.03919 238.1363 246.43515 251.97435 260.8311 263.87965 268.86094 274.40016 278.82356 286.0564 289.98167 294.96296 303.8197 307.69517 312.67646 318.21568 325.43855 329.86195 338.7187 344.2579 348.6813 352.58665 358.12586 360.89546 365.31886 369.22419">d&#x00b4;esir&#x00b4;ees.Legagnantestlejoueurquiapujouersontourendernier.</tspan><tspan y="-634.41799" x="72 78.22662 86.884128 92.42333 96.328678 101.85792 104.90647 109.329868 117.43942 122.97863 125.74823 130.72953 136.26873 141.52898 141.80792 146.23133 154.88883 159.31223 164.29352 169.83272 173.75798 176.52759 180.45285 184.32831 189.3096 192.07921 200.1788 204.6022 214.3755 217.14511 219.91472 222.68433 230.98317 236.52237 239.01303 239.29198 243.71538 252.01422 256.43763 261.69789 265.57334 270.55464 274.43009 277.19969 282.18098 291.95429 297.4935 300.2631 305.8023 315.56568 321.1049 325.01023 329.99153 334.9728 338.87815 343.85945 352.1583 360.45716 369.11466 374.93284 379.35624 383.26158 391.56044 395.98384 399.85929 403.73475 408.71604 413.9763 422.08586 422.08586 431.2913 440.50669 445.76695 451.30616 459.605 464.5863 467.3559 472.8951 481.05448 486.03578 495.80909 505.01454 508.61103 520.3171 525.2984 535.0717">Leprojetd&#x2019;ann&#x00b4;eeconsistaitenl&#x2019;impl&#x00b4;ementationd&#x2019;unprogrammepermettant`a2humainsou2IAou1</tspan><tspan y="-622.46298" x="72 77.260257 82.79946 91.098308 96.079608 98.849208 107.705959 112.13931 119.332309 124.87151 130.41072 138.15167 141.74817 152.53768 158.07688 160.84648 169.43425 172.4828 177.4641 183.0033 187.4267 191.33203">humainetuneIAd&#x2019;yjouer.</tspan><tspan y="-604.52999" x="72 78.22662 87.25274 92.79195 96.4283 96.69729 101.12068 105.045948 109.4793 114.739559 123.21773 128.75693 134.01717 138.44057 143.97977 152.27861 156.70201 161.96227 170.45041 175.98961 179.616 179.89495 184.31835 188.2436 192.667 197.92726 201.80272 210.82884 216.36804 221.90724 230.94333 235.92462 241.46382 246.44512 249.21472 254.47498 258.40025 267.42637 272.40766 277.94688 283.48609 287.39143 292.3727 295.42127 300.40257 305.94178 311.481 314.25059 323.2767 327.7001 336.18824 341.72746 346.15086 354.67884 359.66014 363.56547 368.54676 374.08598 379.62519 382.39479 387.65504 393.19425 397.61766 406.15559 410.57899 415.56028 423.85914 429.39836 434.37965 438.28498 443.26628 447.14173 449.91133 452.95988 461.48786 467.02708 471.45048 479.9884 485.51768 488.28727 493.82649 494.09547 498.5288 502.43415 506.85755 512.1178 515.9932 520.4166 528.94467 532.54116">Lepr&#x00b4;esentdocumentpr&#x00b4;esenteuneanalyseapprofondieetdesgraphiquescomparatifsdesdi&#xfb00;&#x00b4;erentesIA</tspan><tspan y="-592.57498" x="72 74.7696 83.06844 88.60765 91.0983 91.37725 95.800647 104.09949 108.52288 113.783138 117.37963 117.658588 122.08198 126.50537 133.66847 137.59374 142.57503 148.11423 155.27733 158.32588 163.30718 167.21251 175.51136 179.93476 187.09786 192.63706 200.2983 208.31819 208.59714 213.02054 216.896 222.4352 227.69544 233.23464 237.65804 244.82114 250.36034 258.02159 260.79118 269.0103 273.43373 276.2033 281.1846 285.10987 289.03514 296.69639 300.29289 307.76484 314.54939 317.31898 322.0213 327.0026 331.426 335.33134 341.3587 349.65757 354.08097 357.95643 361.83189 366.81318 372.07344 378.90779 379.1867 383.6101 388.5914 393.5727 396.3423 400.7657 409.06455 413.48796 418.7482 425.8615 430.2849 438.78303 439.06196 443.48536 448.7456 451.5152 457.0544 461.4778 467.01704 471.44044 479.10169 481.87129 484.64088 487.41047 492.94969 498.4889 504.0281 508.4515 513.9907 518.4141 526.0754 531.61459 536.03799">impl&#x00b4;ement&#x00b4;eessousformesdem&#x00b4;ethodesdelaclasseIAPlayer,mettant&#x00b4;egalementen&#x00b4;evidencel&#x2019;in&#xfb02;uencedes</tspan><tspan y="-580.61996" x="72 77.53921 80.30881 85.83805 86.117008 90.5404 94.44574 98.86913 104.12939 108.00484 115.25761 120.796817 125.778118 129.68346 134.66475 142.68465 142.9636 147.387 151.26245 155.16779 159.59119 166.834 171.2574 178.45041 186.74925 191.73055 195.606 198.37561 203.08792 208.06922 213.32947 220.52248 226.06168 231.04297 238.29575 242.4402 247.9794 252.9607 255.7303 264.30809 269.8473 272.61689 275.38648 283.68534 289.22456 291.71519 291.9941 296.4175 304.71638 309.13978 314.40003 318.27549 323.25679 327.13224 329.90184 334.88313 340.42234">di&#xfb00;&#x00b4;erentsparam`etresetmotivantnoschoixd&#x2019;impl&#x00b4;ementation.</tspan></text>
<text xml:space="preserve" transform="matrix(1 0 -0 1 0 792)" font-size="14.3462" font-family="CMBX12" font-weight="bold"><tspan y="-547.67398" x="72 96.216388 111.16512 111.538127 118.89773 125.181369 134.14774 142.66938 151.63574 158.99535">2M&#x00b4;ethodes</tspan></text>
<text xml:space="preserve" transform="matrix(1 0 -0 1 0 792)" font-size="9.9626" font-family="CMR10"><tspan y="-525.85299" x="72 79.61143 84.59273 90.131938 98.27138 101.04098 105.46437 113.60381 121.63367 121.90266 126.32605 130.2015 135.7407 141.00095 146.54015 150.96355 159.103 163.5264 166.296 169.61356 175.15276 179.57616 183.50142 187.42668 192.40798 197.94718 201.87244 210.8587 217.08533 219.85494 223.45143 230.92339 237.90717 240.67678 245.65807 249.5634 257.7128 263.252 271.8896 275.81486 280.79615 290.54954 294.425 299.40629 304.9455 308.85084 316.05378 319.97904 322.74864 330.7785 336.31773 339.0873 347.72489 353.2641 358.8033 367.4409 372.9801 381.61769 385.54295 389.96635 398.10578 403.08708 407.51048 411.38594 414.15553 419.1368 424.67604 432.81547 438.63365 443.61494 447.5402 451.46546 454.23506 459.77427 462.54386 466.96726 470.89253 480.7754 487.002 495.6396 501.1788 506.1601 510.06544 515.04678 523.06668 523.34567 527.76907 531.6445 535.5498">Danslesm&#x00b4;ethodesci-dessous:L&#x2019;IA,lorsdesontour,simuleunedesesactionspossibles.Leparam`etre</tspan><tspan y="-513.89797" x="72 77.53921 86.32622 91.865428 95.77077 100.75207 103.80062 108.78192 114.32113 119.86034 124.28373 129.82294 138.09189 141.96735 146.94864 152.48784 156.91124 162.45044 166.3259 171.8651 176.84639 185.08547 187.85507 193.39427 198.93347 201.70308 206.96334 212.50254 221.28955 224.05916 232.84618 238.38538 243.36667 251.39652 256.93574 260.84107 269.62809 275.1673 283.9543 287.82978 292.81108 298.35029 302.2556 310.5445 310.5445 319.8894 323.81468 326.58427 334.60417 340.14338 342.91297 347.33638 351.2417 361.5729 367.939 372.9203 378.18055 386.41963 391.67988 397.2191 406.0061 411.54533 415.96873 421.50794 425.3834 435.2962 439.7196 443.64488 451.88395 455.8092 461.34843 466.60868 466.8876 471.311 475.21635 477.98594 482.40934 487.94856 496.2175 496.2175 505.5624 510.5437 517.9359 520.7055 527.8487 532.2721 536.1974">deprofondeur(&#x201d;depth&#x201d;)indiquelenombredetours`asimuler.Tantquedepthestsup&#x00b4;erieur`a0,ilest</tspan><tspan y="-501.94297" x="72 77.260257 77.53921 81.9626 86.385997 90.01238 90.291339 94.71473 103.01357 107.436969 112.69722 116.30368 116.57267 124.46305 130.00226 137.9026 146.35088 150.77428 158.11672 160.88632 168.7767 171.82526 176.80655 182.34575 186.76915 192.30835 199.68067 205.21987 210.20116 215.46141 222.80385 225.57346 228.34307 233.32436 237.74776 241.62322 244.39282 249.37412 258.3803 262.8037 266.72898 274.0814 278.00666 280.77626 288.79615 294.33537 296.826 297.10493 301.52833 309.4187 313.56315 319.10237 324.08366 329.62287 334.60417 339.02757 346.66886 349.43846 352.20805 355.80455 366.74348 370.66874 373.43833 381.45823 386.99745 389.76704 397.6674 402.0908 407.63 411.55528 417.09449 419.86408 423.73954 431.6299 437.16914 442.70835 450.59873 456.13795 460.56135 467.95359 472.93489 477.35829 481.23374 484.00334 488.98463 494.52384 501.91609 507.73426 512.7156 516.64089 520.56619 523.33578 528.87496 531.64456 536.06796">d&#x00b4;ecr&#x00b4;ement&#x00b4;ede1etlejoueurdontl&#x2019;actionestsimul&#x00b4;eechange.l&#x2019;IAsimuleensuiteunedesactionspossibles</tspan><tspan y="-489.98799" x="72 77.53921 86.21663 88.98623 91.75583 96.73713 102.27634 107.25764 111.68103 115.58637 119.5216 124.5029 127.262538 131.16788 139.85527 145.39447 150.93367 153.70328 161.88257 167.42177 172.96097 181.6384 187.1776 191.601 199.79026 203.71552 206.48513 210.90853 216.44773 221.98693 226.41033 234.58962 239.01302 247.1425 251.04784 255.47124 259.90458 264.88587 273.18473 281.48359 285.90699 291.4462 295.8696 304.54704 307.59559 313.1348 317.06007 322.3203 327.85954 330.62913 330.62913 339.86445 344.28785 352.97526 358.2355 363.77473 366.5443 372.07359 377.6128 386.3002 391.2815 395.7049 399.58036 402.34996 407.33125 417.12449 425.14439 425.4233 429.8467 435.38594 444.07334 444.07334 453.30867 458.84788 464.3871 473.0645 478.32478 481.09437 485.51777 489.39323 494.3745 497.1441 501.04945 509.72688 514.7082 524.51138 530.05056 535.5897">del&#x2019;adversairepuisunedessiennesetrecommencejusqu&#x2019;`acequ&#x2019;uneactionm`ene`aunevictoireouune</tspan><tspan y="-478.03199" x="72 77.260257 77.53921 81.9626 85.011157 89.992458 92.762058 96.637508 104.85665 109.83795 119.18287 124.44312 129.98233 138.20148 143.74068 148.16408 153.70328 157.57874 166.92365 170.8489 175.8302 178.59981 186.27101 186.27101 195.05802 200.0393 208.66692 215.45145 218.22106 220.99066 229.21977 234.20107 238.07653 241.95198 245.85732 248.62693 254.16613 259.70533 267.92448 272.90577 275.67536 280.65666 284.56199 292.29298 297.83219 307.16716 311.0924 315.5158 320.4971 324.40245 332.63157 332.63157 341.4086 344.1782 346.94779 351.92909 356.35249 360.22795 362.99754 367.97883 377.31379 382.853 388.3922 391.1618 398.8928 402.79814 407.22154 411.64494 416.62623 424.92509 433.22395 437.64735 443.18656 447.60997 455.83909 459.46546 459.73445 464.1678 468.5912 474.1304 478.03575 481.961 484.7306 489.71189 494.13529 502.43415 506.85755 512.1178 519.789 525.6071 530.58847 536.1276">d&#x00b4;efaiteouquedepthsoit`a0.Elleattribuealorsunscore`al&#x2019;actionpuisrecommencer&#x00b4;ecursivementpour</tspan><tspan y="-466.077" x="72 75.87545 80.85675 86.39596 90.27141 94.6948 101.78817 104.55777 108.98116 116.07453 121.05583 125.479228 129.35468 132.12429 137.10558 142.64478 149.73815 155.55629 160.53759 164.46285 168.3881 171.15772 176.69692 179.46652 183.88993 190.98329 196.52249 204.114 208.25846 213.79766 218.77895 224.0392 229.5784 237.1699 241.04537 246.02666 251.56586 255.47119 262.61439 269.39894 272.16853 274.9381 282.52964 288.06886 293.60807 296.37767 303.42124 308.96046 313.94175 321.0152 324.06376 329.04505 334.58427 339.00767 346.08113 348.8507 351.6203 356.6016 361.025 364.90046 367.67005 372.65135 381.35868 386.8979 391.87919 397.13945 404.183 406.9526 414.54414 418.4694 422.8928 427.87409 431.77943 439.37095 443.79435 447.7196 454.76319 457.53279 465.1243 470.6635 473.4331 478.97233 485.78675 486.06568 490.48908 493.25868 497.68208 502.66337 502.9423 507.3657">touteslesactionspossiblesdechaquetour.Elle&#xfb01;nitparjouerl&#x2019;actiondontlescoreestleplus&#x00b4;elev&#x00b4;e.</tspan></text>
<text xml:space="preserve" transform="matrix(1 0 -0 1 0 792)" font-size="11.9552" font-family="CMBX12" font-weight="bold"><tspan y="-438.189" x="72 78.73078 82.47276 102.653148 115.40935 119.15133 126.62333 130.36531 141.57929 148.11878">2.1Minimax</tspan></text>
<text xml:space="preserve" transform="matrix(1 0 -0 1 0 792)" font-size="9.9626" font-family="CMR10"><tspan y="-419.799" x="72 78.22662 86.0373 91.57651 96.55781 100.46315 105.44445 113.46434 113.74329 118.16669 122.04214 125.94748 133.75817 138.73946 147.0383 152.01959 157.27985 160.04946 168.3483 173.32959 177.26482 180.03443 185.56366 190.54496 195.52625 201.70307 207.24227 212.23352 212.5025 220.32315 225.85239 230.83368 238.13626 243.39652 243.67546 248.09886 251.14742 256.12873 261.66795 268.9307 268.9307 277.2993 283.66539 287.5707 293.10993 300.92063 303.69023 309.22944 314.76866 317.53825 322.7985 328.3377 336.1484 341.40867 346.94789 349.71748 354.14088 356.91047 359.68006 367.49076 375.7896 380.7709 386.03117 388.80076 397.0996 399.8692 403.79447 411.60517 414.37477 422.18547 426.12068 430.54408 435.52537 439.4307 443.8541 450.02095 453.95616 460.11305 465.65226 471.19148 479.00218 483.98347 488.40687 492.28233 495.0519 500.0332 508.95973 516.9796 517.2586 521.682 527.2212 535.03189 535.03189">Leparam`etre&#x201d;maximasing&#x201d;,&#xfb01;x&#x00b4;epard&#x00b4;efaut`aTrueindiquequ&#x2019;ellemaximiselescore,siuneactionm`ene`a</tspan><tspan y="-407.84403" x="72 74.7696 83.21789 88.47814 91.24774 95.671138 99.546588 104.527889 107.297489 111.20283 115.62622 119.50167 124.48297 134.72452 138.32102 145.79297 150.77426 154.64972 160.9162 163.6858 171.57619 175.50145 179.92485 184.90615 188.81148 196.70186 201.12526 205.05052 212.39296 217.93216 220.70177 226.24097 233.35427 233.62325 238.04665 240.81626 245.24962 250.23093 250.49991 258.3903 263.65055 269.18977 277.08015 281.0054 287.24198 291.66539 294.43498 297.20457 305.09495 310.63417 318.52455 326.54444 326.82337 331.24678 336.78599 344.6664 350.20564 356.4422 356.4422 364.89048 370.4297 375.9689 383.85929 389.11955 391.88914 396.31254 400.188 405.16929 407.93888 411.8442 419.72465 425.26387 431.50044 431.50044 439.9487 445.4879 451.02714 458.9175 464.17778 464.4567 468.8801 471.92866 476.90995 479.67955 483.555 487.9784 491.85386 496.83515 504.44657 511.77906 518.14517 528.3867 533.36807 537.24349">lavictoire(&#x201d;WIN&#x201d;),lescoreestplus&#x00b4;elev&#x00b4;equesiellenem`eneni`aunevictoireni`auned&#x00b4;efaite(&#x201d;DRAW&#x201d;),</tspan><tspan y="-395.88905" x="72 77.53921 80.30881 85.848018 93.09082 97.51421 103.05342 107.476818 112.458118 116.36346 124.11436 129.3746 134.9138 142.65476 146.58002 152.66718 157.09058 159.86019 162.62979 170.3807 178.4006 178.67955 183.10295 188.64215 196.3831 196.3831 204.68195 210.22115 215.76035 223.51126 228.77152 229.05046 233.47386 236.52242 241.50371 244.27332 248.14878 252.57218">plusencorequesiellem`ene`auned&#x00b4;efaite.</tspan></text>
<text xml:space="preserve" transform="matrix(1 0 -0 1 0 792)" font-size="9.9626" font-family="CMR10"><tspan y="-366.65406" x="121.168 125.5615 132.44567 139.32982 145.10814 150.32855 154.44312 160.76937 174.12921 182.91623 186.17401 192.21134 195.46912 204.25614 209.73555 216.53005 222.0294 228.14644 233.6956 239.81264 246.97576 258.04423 264.29078 269.4315 275.67805 280.2708 288.83866 300.21595 309.54096 315.5484 321.8348 325.62059 334.9456 338.74134 344.1909 347.98664 354.552 360.55946 368.37016 372.1659 378.17335 384.45976 389.9093 395.88688 408.54936 413.07237">functionminimax(node,depth,maximizingPlayer)is</tspan><tspan y="-354.69908" x="97.958 102.77989 114.67523 121.0513 126.30159 132.66768 137.37999 148.83698 162.1769 174.66002 180.66747 192.26393 198.48059 204.1493 210.37593 223.21773 227.74076 239.89513 252.60739 257.72819 263.40687 268.55754 278.11167 282.13655 288.92109 295.15766 305.83757 312.06419 317.73289 323.9595 335.95448 340.7365 347.1823 352.5123">ifdepth=0ornodeisaterminalnodethen</tspan><tspan y="-342.74409" x="121.063 126.21367 131.87244 136.99323 143.76779 148.91846 162.69673 167.59835 174.1637 187.25457 194.45752 200.53472 207.73767 213.30677 217.74013 223.32915 228.86837 233.30173 246.52211 252.93802 259.065 262.99028 269.68516 282.54689 288.84324 299.86189 306.0885 311.7572 317.97389">returntheheuristicvalueofnode</tspan><tspan y="-330.7891" x="97.95801 102.77991 114.874507 124.19949 130.20694 136.49335 140.28911 149.6141 153.40987 158.85942 162.65518 169.22054 175.22798 183.0287 186.82447 192.83191 199.11832 204.56787 216.38352 221.16558 227.61138 232.95134">ifmaximizingPlayerthen</tspan><tspan y="-318.8341" x="120.97401 127.38992 133.52687 137.44219 144.13704 156.17186 159.41968">value:=</tspan></text>
<text xml:space="preserve" transform="matrix(1 0 -0 1 0 792)" font-size="9.9626" font-family="SFRM1000"><tspan y="-318.8341" x="172.44">&#x2212;</tspan></text>
<text xml:space="preserve" transform="matrix(1 0 -0 1 0 792)" font-size="9.9626" font-family="CMR10"><tspan y="-318.8341" x="185.66501 189.35117 196.91278">INF</tspan><tspan y="-306.8781" x="121.32201 125.87491 132.35059 144.64443 149.97443 155.86232 161.20229 175.10012 180.99799 188.01166 192.25574 196.49982 210.8061 217.10247 228.1211 234.34772 240.01644 246.2331 257.80964 263.82707">foreachchildofnodedo</tspan><tspan y="-294.92314" x="144.88501 151.30092 157.42792 161.35318 168.04804 180.08286 183.33068 197.3879 205.5373 210.35918 216.52603 222.43386 228.69037 234.65796 238.41387 244.93936 252.9493 263.7886 272.57563 275.84336 281.87074 285.12849 293.92549 299.39494 306.19938 312.38615 318.0748 324.87928 328.91413 332.94898 342.62269 353.81068 360.1768 365.4271 371.80317 376.50553">value:=max(value,minimax(child,depth</tspan></text>
<text xml:space="preserve" transform="matrix(1 0 -0 1 0 792)" font-size="9.9626" font-family="SFRM1000"><tspan y="-294.92314" x="387.63603">&#x2212;</tspan></text>
<text xml:space="preserve" transform="matrix(1 0 -0 1 0 792)" font-size="9.9626" font-family="CMR10"><tspan y="-294.92314" x="401.82203 408.90544 418.27027 424.3375 431.3711 437.15937 442.26023 450.0012 455.28138">1,FALSE))</tspan><tspan y="-282.96815" x="121.06302 126.213687 131.87245 136.99324 143.7678 148.91847 162.82627 169.24217 175.37912 179.29444 185.98929">returnvalue</tspan><tspan y="-271.01316" x="97.582019 103.67912 108.12244 113.71146 126.822238">else(</tspan></text>
<text xml:space="preserve" transform="matrix(1 0 -0 1 0 792)" font-size="9.9626" font-family="SFRM1000"><tspan y="-271.01316" x="131.74002">&#x2217;</tspan></text>
<text xml:space="preserve" transform="matrix(1 0 -0 1 0 792)" font-size="9.9626" font-family="CMR10"><tspan y="-271.01316" x="144.78803 154.1429 157.96854 164.56377 168.3894 177.74428 181.56992 187.05931 190.88495 197.48018 210.78025 217.60462 221.6594 227.92586 234.46132 240.16989">minimizingplayer</tspan></text>
<text xml:space="preserve" transform="matrix(1 0 -0 1 0 792)" font-size="9.9626" font-family="SFRM1000"><tspan y="-271.01316" x="252.36302">&#x2217;</tspan></text>
<text xml:space="preserve" transform="matrix(1 0 -0 1 0 792)" font-size="9.9626" font-family="CMR10"><tspan y="-271.01316" x="258.377">)</tspan><tspan y="-259.05818" x="120.974018 127.38993 133.52689 137.4422 144.13706 156.17188 159.4197 172.73969 185.67115 189.3573 196.91892">value:=+INF</tspan><tspan y="-247.10317" x="121.322017 125.87492 132.3506 144.64444 149.97444 155.86234 161.2023 175.10013 180.998 188.01168 192.25576 196.49983 210.80612 217.10248 228.12111 234.34774 240.01645 246.23311 257.80967 263.8271">foreachchildofnodedo</tspan><tspan y="-235.14717" x="144.88501 151.30092 157.42792 161.35318 168.04804 180.08286 183.33068 197.8661 206.50368 209.60205 216.52605 222.44384 228.69039 234.65798 238.41388 244.94934 252.94931 263.79859 272.5856 275.84336 281.87074 285.13847 293.92549 299.39494 306.19938 312.39613 318.08479 324.88926 328.9241 332.95896 342.63267 353.8107 360.17683 365.43708 371.8032 376.50556">value:=min(value,minimax(child,depth</tspan></text>
<text xml:space="preserve" transform="matrix(1 0 -0 1 0 792)" font-size="9.9626" font-family="SFRM1000"><tspan y="-235.14717" x="387.63603">&#x2212;</tspan></text>
<text xml:space="preserve" transform="matrix(1 0 -0 1 0 792)" font-size="9.9626" font-family="CMR10"><tspan y="-235.14717" x="401.82203 408.90544 417.73228 423.9489 430.30506 436.81065 444.0236 449.29383">1,TRUE))</tspan><tspan y="-223.19217" x="121.06302 126.213687 131.87245 136.99324 143.7678 148.91847 162.82627 169.24217 175.37912 179.29444 185.98929">returnvalue</tspan><tspan y="-199.28217" x="73.03402">(</tspan></text>
<text xml:space="preserve" transform="matrix(1 0 -0 1 0 792)" font-size="9.9626" font-family="SFRM1000"><tspan y="-199.28217" x="77.94202">&#x2217;</tspan></text>
<text xml:space="preserve" transform="matrix(1 0 -0 1 0 792)" font-size="9.9626" font-family="CMR10"><tspan y="-199.28217" x="91.877017 97.416217 104.898128 109.61043 115.438549 120.15085 127.07485 139.55799 145.77466 152.54923 157.1121">Initialcall</tspan></text>
<text xml:space="preserve" transform="matrix(1 0 -0 1 0 792)" font-size="9.9626" font-family="SFRM1000"><tspan y="-199.28217" x="168.67603">&#x2217;</tspan></text>
<text xml:space="preserve" transform="matrix(1 0 -0 1 0 792)" font-size="9.9626" font-family="CMR10"><tspan y="-199.28217" x="174.69004">)</tspan><tspan y="-187.32717" x="72.491039 81.278049 84.54578 90.57315 93.83092 102.62789 108.09736 114.90182 121.18822 127.54436 132.81458 136.94907 143.29524 147.42974 157.31262 168.37111 174.61766 179.75836 186.00492 190.59767 199.1655 208.54032 214.75698 221.12308 227.6187 234.48293">minimax(origin,depth,TRUE)</tspan></text>
<text xml:space="preserve" transform="matrix(1 0 -0 1 0 792)" font-size="9.9626" font-family="CMR10"><tspan y="-147.87517" x="72.00004 78.22666 86.5554 90.97879 96.239048 101.77825 110.10699 115.646198 123.97493 126.74453 135.63117 138.67972 143.66101 149.20021 153.62361 157.49907 160.26868 165.24997 174.70447 180.2337 189.6882 195.2274 199.13274 204.66197 207.71053 212.13393 219.91472 224.33812 228.26338 236.04418 239.91963 243.55597 243.82495 248.24835 256.08894 260.0142 262.78379 271.08265 273.85224 276.62184 281.60313 284.3727 288.27806 296.60679 301.58808 311.03263 316.57185 320.4971 324.9205 330.45973 335.99894 341.2592 345.6826 350.94285 356.48207 360.90547">Lecodedelafonctionduprojetesttr`essimilaireaupseudocode.</tspan></text>
<text fill="#0000ff" xml:space="preserve" transform="matrix(1 0 -0 1 0 792)" font-size="9.9626" font-family="CMR10"><tspan y="-147.87517" x="369.85188 376.6364 379.406 384.94523 392.7858 398.31507 401.08467 403.85426 409.39347 412.44203 417.4233 421.32865 429.6275 434.6088 438.48426 441.25386 446.23515 451.77436 459.61494 463.5402 469.0794 476.89009 481.31349 485.73689 493.51768 498.49897 501.26856 506.24986 511.23115 515.1365 517.90609 521.7815 527.3207 535.6195">Plusd&#x2019;informationssurcetalgorithme</tspan></text>
<text xml:space="preserve" transform="matrix(1 0 -0 1 0 792)" font-size="9.9626" font-family="CMR10"><tspan y="-135.91918" x="72.00004 77.8182 82.24159 87.7808 92.7621 97.18549 102.44575 109.36975 109.648708 114.0721 117.94755 121.85289 129.59383 133.46929 137.37462 142.35591 147.89511 152.87642 153.15537 157.57877 165.31972 170.85892 175.84021 181.37941 188.63219 194.16143 201.91234 207.45154 212.43283 220.45273 225.99193 229.89727 234.32067 239.85987 243.78513 248.20853 255.45134 259.38658 264.36787 269.89714 273.80247 278.2358 282.6592 289.902 295.44123 303.18217 306.80854 307.08747 311.51087 314.28047 314.5594 318.9828 322.88813 327.31153 332.85075 337.27415 341.69755">peuvent&#x02c6;etretrouv&#x00b4;eedansdenombreusessourcesder&#x00b4;ef&#x00b4;erence.</tspan></text>
<text xml:space="preserve" transform="matrix(1 0 -0 1 0 792)" font-size="9.9626" font-family="CMR10"><tspan y="-72.000179" x="303.50904">2</tspan></text>
</g>
</svg>
