<?xml version="1.0" encoding="UTF-8" standalone="no"?>
<!DOCTYPE svg PUBLIC "-//W3C//DTD SVG 1.1//EN" "http://www.w3.org/Graphics/SVG/1.1/DTD/svg11.dtd">
<svg xmlns="http://www.w3.org/2000/svg" xmlns:xlink="http://www.w3.org/1999/xlink" version="1.1" width="612pt" height="792pt" viewBox="0 0 612 792">
<g enable-background="new">
<text xml:space="preserve" transform="matrix(1 0 -0 1 0 792)" font-size="9.9626" font-family="CMR10"><tspan y="-705.654" x="73.232 80.00657 85.655368 94.75121 102.94047 109.49586 115.04502 121.092319 125.48582 133.38617 145.10219 152.00627 156.14076 162.48694 169.12203 174.91031">defm(self,player</tspan></text>
<path transform="matrix(1,0,0,-1,180.771,86.14697)" stroke-width=".398" stroke-linecap="butt" stroke-miterlimit="10" stroke-linejoin="miter" fill="none" stroke="#000000" d="M 0 0 L 2.989 0 "/>
<text xml:space="preserve" transform="matrix(1 0 -0 1 0 792)" font-size="9.9626" font-family="CMR10"><tspan y="-705.654" x="185.127 189.26149 199.14438 210.75081 216.43946 222.68599 226.71089 232.95743 240.98728 252.73319 259.66719 265.4953 270.81535">id,color,best</tspan></text>
<path transform="matrix(1,0,0,-1,276.675,86.14697)" stroke-width=".398" stroke-linecap="butt" stroke-miterlimit="10" stroke-linejoin="miter" fill="none" stroke="#000000" d="M 0 0 L 2.989 0 "/>
<text xml:space="preserve" transform="matrix(1 0 -0 1 0 792)" font-size="9.9626" font-family="CMR10"><tspan y="-705.654" x="281.06 286.38005 292.1982 298.58424 303.88435 312.70124 324.32759 332.80577 339.06227 344.2428 349.45326">score,worst</tspan></text>
<path transform="matrix(1,0,0,-1,355.21,86.14697)" stroke-width=".398" stroke-linecap="butt" stroke-miterlimit="10" stroke-linejoin="miter" fill="none" stroke="#000000" d="M 0 0 L 2.989 0 "/>
<text xml:space="preserve" transform="matrix(1 0 -0 1 0 792)" font-size="9.9626" font-family="CMR10"><tspan y="-705.654" x="359.477 364.67747 370.38606 376.64256 381.8231 390.41087 401.5889 407.96498 413.21528 419.5814 424.2937 432.43318 438.08198">score,depth):</tspan><tspan y="-693.699" x="97.23898 103.54531 109.303699 114.50417 118.5988 124.91509 136.87021 150.01088 157.78171 163.06188 168.89995">action=None</tspan><tspan y="-681.743" x="97.39698 104.420619 110.32844 115.74809">best</tspan></text>
<path transform="matrix(1,0,0,-1,121.706,110.05701)" stroke-width=".398" stroke-linecap="butt" stroke-miterlimit="10" stroke-linejoin="miter" fill="none" stroke="#000000" d="M 0 0 L 2.989 0 "/>
<text xml:space="preserve" transform="matrix(1 0 -0 1 0 792)" font-size="9.9626" font-family="CMR10"><tspan y="-681.743" x="126.181 132.64672 138.55454 143.92438 148.1784 154.64412 166.75864 179.8993 187.67014 192.9503 198.78838">action=None</tspan><tspan y="-669.78799" x="97.958 102.77989 114.67523 121.0513 126.30159 132.66768 137.37999 148.54807 155.11342 169.06105 175.44707">ifdepth==0:</tspan><tspan y="-657.83297" x="121.063 126.21367 131.87244 136.99323 143.76779 148.91846 162.72661 167.90717 175.62819 180.85855 186.64682 193.17234 204.99794 210.88585 217.34162 221.5857 228.0315">return(None,color</tspan></text>
<text xml:space="preserve" transform="matrix(1 0 -0 1 0 792)" font-size="9.9626" font-family="SFRM1000"><tspan y="-657.83297" x="239.873">&#x2217;</tspan></text>
<text xml:space="preserve" transform="matrix(1 0 -0 1 0 792)" font-size="9.9626" font-family="CMR10"><tspan y="-657.83297" x="253.278 259.15596 265.52207 270.24433 276.83958 282.77729 289.31275 296.40614 301.00886 306.98643 312.97395 318.40357 322.72734 329.54176">self.objective</tspan></text>
<path transform="matrix(1,0,0,-1,336.121,133.96802)" stroke-width=".398" stroke-linecap="butt" stroke-miterlimit="10" stroke-linejoin="miter" fill="none" stroke="#000000" d="M 0 0 L 2.989 0 "/>
<text xml:space="preserve" transform="matrix(1 0 -0 1 0 792)" font-size="9.9626" font-family="CMR10"><tspan y="-657.833" x="340.666 345.2687 352.3621 359.45549 365.443 370.87263 375.19639 381.73185 389.88127">function(</tspan><tspan y="-645.878" x="145.236 152.27954 156.5535 163.03914 169.80374 175.73149">player</tspan></text>
<path transform="matrix(1,0,0,-1,181.728,145.92298)" stroke-width=".398" stroke-linecap="butt" stroke-miterlimit="10" stroke-linejoin="miter" fill="none" stroke="#000000" d="M 0 0 L 2.989 0 "/>
<text xml:space="preserve" transform="matrix(1 0 -0 1 0 792)" font-size="9.9626" font-family="CMR10"><tspan y="-645.878" x="186.221 190.49495 198.94322 204.21344">id))</tspan><tspan y="-633.923" x="97.38699 103.28485 110.29852 114.54259 118.796619 130.90119">child=</tspan></text>
<text xml:space="preserve" transform="matrix(1 0 -0 1 0 792)" font-size="9.9626" font-family="SFRM1000"><tspan y="-633.923" x="143.345">&#x2212;</tspan></text>
<text xml:space="preserve" transform="matrix(1 0 -0 1 0 792)" font-size="9.9626" font-family="CMR10"><tspan y="-633.923" x="150.899">1</tspan><tspan y="-621.96798" x="97.135 102.235858 107.3666 115.45623">try:</tspan><tspan y="-610.01199" x="121.450008 128.61312 135.22827 140.77744 146.33657 150.73007 157.90314 162.29665">possible</tspan></text>
<path transform="matrix(1,0,0,-1,168.949,181.78803)" stroke-width=".398" stroke-linecap="butt" stroke-miterlimit="10" stroke-linejoin="miter" fill="none" stroke="#000000" d="M 0 0 L 2.989 0 "/>
<text xml:space="preserve" transform="matrix(1 0 -0 1 0 792)" font-size="9.9626" font-family="CMR10"><tspan y="-610.012" x="173.567 180.1722 186.22946 191.72882 196.1323 202.73749 209.91056 220.55062 235.34508 241.223 247.58911 252.31139 258.90663 264.7447 271.73844 278.17427 284.61009 289.96995">actions=self.board</tspan></text>
<path transform="matrix(1,0,0,-1,297.547,181.78803)" stroke-width=".398" stroke-linecap="butt" stroke-miterlimit="10" stroke-linejoin="miter" fill="none" stroke="#000000" d="M 0 0 L 2.989 0 "/>
<text xml:space="preserve" transform="matrix(1 0 -0 1 0 792)" font-size="9.9626" font-family="CMR10"><tspan y="-610.012" x="301.991 307.3708 312.70079 319.1366 324.46659">state</tspan></text>
<path transform="matrix(1,0,0,-1,330.951,181.78803)" stroke-width=".398" stroke-linecap="butt" stroke-miterlimit="10" stroke-linejoin="miter" fill="none" stroke="#000000" d="M 0 0 L 2.989 0 "/>
<text xml:space="preserve" transform="matrix(1 0 -0 1 0 792)" font-size="9.9626" font-family="CMR10"><tspan y="-610.012" x="335.395 342.38874 346.61286 352.49079 360.5306">dico[</tspan><tspan y="-598.057" x="145.68 151.55792 157.92403 162.6463 169.24155 174.62136 181.16678 187.1543 193.14182 198.05338">self.board</tspan></text>
<path transform="matrix(1,0,0,-1,205.181,193.74298)" stroke-width=".398" stroke-linecap="butt" stroke-miterlimit="10" stroke-linejoin="miter" fill="none" stroke="#000000" d="M 0 0 L 2.989 0 "/>
<text xml:space="preserve" transform="matrix(1 0 -0 1 0 792)" font-size="9.9626" font-family="CMR10"><tspan y="-598.057" x="209.175 214.60463 220.59215 227.13758 235.00803 240.49742 246.60449 251.62564 255.52103 264.9058">copy.grid,</tspan><tspan y="-586.102" x="145.23601 152.27956 156.55352 163.03916 169.80376 175.7315">player</tspan></text>
<path transform="matrix(1,0,0,-1,181.728,205.69898)" stroke-width=".398" stroke-linecap="butt" stroke-miterlimit="10" stroke-linejoin="miter" fill="none" stroke="#000000" d="M 0 0 L 2.989 0 "/>
<text xml:space="preserve" transform="matrix(1 0 -0 1 0 792)" font-size="9.9626" font-family="CMR10"><tspan y="-586.102" x="186.221 190.49495 199.14249">id]</tspan><tspan y="-574.147" x="97.04099 102.60012 108.986148 114.54527 120.09444 126.76938 133.37459">except:</tspan><tspan y="-562.19198" x="121.45 128.61312 135.22827 140.77744 146.33657 150.73007 157.90314 162.29665">possible</tspan></text>
<path transform="matrix(1,0,0,-1,168.949,229.60901)" stroke-width=".398" stroke-linecap="butt" stroke-miterlimit="10" stroke-linejoin="miter" fill="none" stroke="#000000" d="M 0 0 L 2.989 0 "/>
<text xml:space="preserve" transform="matrix(1 0 -0 1 0 792)" font-size="9.9626" font-family="CMR10"><tspan y="-562.192" x="173.567 180.1722 186.22946 191.72882 196.1323 202.73749 209.91056 220.55062 235.34508 241.223 247.58911 252.31139 258.90663 264.86424 271.41963 277.4171">actions=self.gen</tspan></text>
<path transform="matrix(1,0,0,-1,285.125,229.60901)" stroke-width=".398" stroke-linecap="butt" stroke-miterlimit="10" stroke-linejoin="miter" fill="none" stroke="#000000" d="M 0 0 L 2.989 0 "/>
<text xml:space="preserve" transform="matrix(1 0 -0 1 0 792)" font-size="9.9626" font-family="CMR10"><tspan y="-562.192" x="289.688 296.8013 303.3567 308.85606 314.3554 318.6991 325.8124 330.1561">possible</tspan></text>
<path transform="matrix(1,0,0,-1,336.755,229.60901)" stroke-width=".398" stroke-linecap="butt" stroke-miterlimit="10" stroke-linejoin="miter" fill="none" stroke="#000000" d="M 0 0 L 2.989 0 "/>
<text xml:space="preserve" transform="matrix(1 0 -0 1 0 792)" font-size="9.9626" font-family="CMR10"><tspan y="-562.192" x="341.319 347.8744 353.8719 359.32145 363.66514 370.22053 377.33384 383.88923 390.3151 397.35868 401.63264 408.1183 414.8829 420.81068">actions(player</tspan></text>
<path transform="matrix(1,0,0,-1,426.811,229.60901)" stroke-width=".398" stroke-linecap="butt" stroke-miterlimit="10" stroke-linejoin="miter" fill="none" stroke="#000000" d="M 0 0 L 2.989 0 "/>
<text xml:space="preserve" transform="matrix(1 0 -0 1 0 792)" font-size="9.9626" font-family="CMR10"><tspan y="-562.192" x="431.304 435.57795 443.66758">id)</tspan><tspan y="-550.237" x="121.76898 127.64691 134.01302 138.73529 145.33054 151.16863 158.16237 164.5982 171.03404 176.39392">self.board</tspan></text>
<path transform="matrix(1,0,0,-1,183.972,241.56403)" stroke-width=".398" stroke-linecap="butt" stroke-miterlimit="10" stroke-linejoin="miter" fill="none" stroke="#000000" d="M 0 0 L 2.989 0 "/>
<text xml:space="preserve" transform="matrix(1 0 -0 1 0 792)" font-size="9.9626" font-family="CMR10"><tspan y="-550.237" x="188.416 193.7958 199.12581 205.56165 210.89165">state</tspan></text>
<path transform="matrix(1,0,0,-1,217.376,241.56403)" stroke-width=".398" stroke-linecap="butt" stroke-miterlimit="10" stroke-linejoin="miter" fill="none" stroke="#000000" d="M 0 0 L 2.989 0 "/>
<text xml:space="preserve" transform="matrix(1 0 -0 1 0 792)" font-size="9.9626" font-family="CMR10"><tspan y="-550.237" x="221.82 228.81375 233.0379 238.91585 246.95566 252.18604 258.58204 263.8622 269.1424 275.52845 280.80863 286.6467 293.0427 300.2058 307.08003 312.95796 319.334 324.04634 330.65153 336.0313 342.57676 348.5543 354.5418 359.45338">dico[deepcopy(self.board</tspan></text>
<path transform="matrix(1,0,0,-1,366.578,241.56403)" stroke-width=".398" stroke-linecap="butt" stroke-miterlimit="10" stroke-linejoin="miter" fill="none" stroke="#000000" d="M 0 0 L 2.989 0 "/>
<text xml:space="preserve" transform="matrix(1 0 -0 1 0 792)" font-size="9.9626" font-family="CMR10"><tspan y="-550.237" x="370.571 376.00065 381.98817 388.5336 396.40406 402.1226 408.44883 413.6991 417.81364 426.02284 432.5583">copy.grid),</tspan><tspan y="-538.281" x="252.83301 259.8766 264.15055 270.6362 277.40083 283.32859">player</tspan></text>
<path transform="matrix(1,0,0,-1,289.326,253.51898)" stroke-width=".398" stroke-linecap="butt" stroke-miterlimit="10" stroke-linejoin="miter" fill="none" stroke="#000000" d="M 0 0 L 2.989 0 "/>
<text xml:space="preserve" transform="matrix(1 0 -0 1 0 792)" font-size="9.9626" font-family="CMR10"><tspan y="-538.281" x="293.818 298.09196 306.7395 316.20396 330.67964 337.84275 344.45793 350.00709 355.56623 359.95973 367.1328 371.5263">id]=possible</tspan></text>
<path transform="matrix(1,0,0,-1,378.167,253.51898)" stroke-width=".398" stroke-linecap="butt" stroke-miterlimit="10" stroke-linejoin="miter" fill="none" stroke="#000000" d="M 0 0 L 2.989 0 "/>
<text xml:space="preserve" transform="matrix(1 0 -0 1 0 792)" font-size="9.9626" font-family="CMR10"><tspan y="-538.281" x="382.784 389.3892 395.44648 400.94584 405.3493 411.9545 419.1276">actions</tspan><tspan y="-526.326" x="97.41199 101.96489 108.44058 121.15286 127.469158 133.21758 138.41806 142.52266 148.82898 162.89617 166.88121 181.2373 188.41037 195.01557 200.57469 206.12386 210.52733 217.69043 222.0939">foractioninpossible</tspan></text>
<path transform="matrix(1,0,0,-1,228.726,265.474)" stroke-width=".398" stroke-linecap="butt" stroke-miterlimit="10" stroke-linejoin="miter" fill="none" stroke="#000000" d="M 0 0 L 2.989 0 "/>
<text xml:space="preserve" transform="matrix(1 0 -0 1 0 792)" font-size="9.9626" font-family="CMR10"><tspan y="-526.326" x="233.343 239.9482 246.00547 251.50482 255.9083 262.5135 269.68659 276.83973">actions:</tspan><tspan y="-514.371" x="119.877 125.46602 130.50708 142.85074 156.59912 161.38118 165.05739 174.26284 180.99756 186.27774">now=time()</tspan><tspan y="-502.416" x="121.868999 126.69089 139.712 145.57997 151.95604 156.66835 163.27356 168.70319">ifself.t</tspan></text>
<text xml:space="preserve" transform="matrix(1 0 -0 1 0 792)" font-size="9.9626" font-family="CMMI10" font-style="italic"><tspan y="-502.416" x="178.41699">&#x003c;</tspan></text>
<text xml:space="preserve" transform="matrix(1 0 -0 1 0 792)" font-size="9.9626" font-family="CMR10"><tspan y="-502.416" x="191.60799 197.20696 202.23807 211.09482">now:</tspan><tspan y="-490.461" x="145.68 151.55792 157.92403 162.6463 169.24155 174.63132 179.513 183.2988 192.60387 198.0335 204.03098 210.5764 220.55893 233.96858 241.72945 246.21262 252.31969">self.timeout=True</tspan><tspan y="-478.506" x="144.696 151.20157 156.06331 161.45308 167.40074">break</tspan><tspan y="-466.55003" x="121.297 127.194858 134.20853 138.4526 142.70664 154.51232 161.08763 174.12868">child+=1</tspan><tspan y="-454.59504" x="121.769 127.64693 134.01303 138.7353 145.33055 150.71036 157.25579 163.2433 169.23082 174.14238">self.board</tspan></text>
<path transform="matrix(1,0,0,-1,181.271,337.205)" stroke-width=".398" stroke-linecap="butt" stroke-miterlimit="10" stroke-linejoin="miter" fill="none" stroke="#000000" d="M 0 0 L 2.989 0 "/>
<text xml:space="preserve" transform="matrix(1 0 -0 1 0 792)" font-size="9.9626" font-family="CMR10"><tspan y="-454.595" x="185.264 190.69364 196.68115 203.22658 211.09703 216.62628 222.7732 228.36222 234.44937 240.70589 247.0122 252.7706 257.97108 262.06568 268.38197 276.29228">copy.act(action)</tspan><tspan y="-442.64" x="120.75001 128.86954 132.57563 139.04135 145.50708 150.85701 160.78972 175.57422 181.45215 187.82822 192.54053 199.14572 204.90412 210.22414 215.49436 221.8704 227.13066 234.06462 241.23769 246.96619 252.69469 258.24388 266.37336 270.06947 276.5352 283.00093 288.3608">winner=self.status().winner</tspan><tspan y="-430.68504" x="121.86901 126.6909 138.68587 146.81534 150.51148 156.9772 163.44293 168.80281 181.36565 185.88867 198.43158 204.84749 210.71546 221.75403 229.52486 234.80503 240.6431 246.96936">ifwinnerisnotNone:</tspan><tspan y="-418.73005" x="145.102 150.4021 156.19039 162.54651 167.81673 178.70586 193.49036 199.36829 205.74436 210.45667 217.06186 222.04317 229.84387 233.22119 244.459 258.13764 264.50376 269.764 276.13014 280.8325">score=self.win+depth</tspan><tspan y="-406.77507" x="145.78 150.6019 162.59687 170.72634 174.42247 180.8882 187.35393 192.7138 202.33768 208.913 222.33261 228.18065 234.59656 240.4446 246.87049 253.91403 258.188 264.67366 271.43827 277.36604">ifwinner==abs(player</tspan></text>
<path transform="matrix(1,0,0,-1,283.348,385.026)" stroke-width=".398" stroke-linecap="butt" stroke-miterlimit="10" stroke-linejoin="miter" fill="none" stroke="#000000" d="M 0 0 L 2.989 0 "/>
<text xml:space="preserve" transform="matrix(1 0 -0 1 0 792)" font-size="9.9626" font-family="CMR10"><tspan y="-406.775" x="287.841 292.11497">id</tspan></text>
<text xml:space="preserve" transform="matrix(1 0 -0 1 0 792)" font-size="9.9626" font-family="SFRM1000"><tspan y="-406.775" x="303.949">&#x2212;</tspan></text>
<text xml:space="preserve" transform="matrix(1 0 -0 1 0 792)" font-size="9.9626" font-family="CMR10"><tspan y="-406.775" x="318.661 325.2164 330.6759">1):</tspan><tspan y="-394.819" x="169.01201 174.3121 180.10039 186.45652 191.72673">score</tspan></text>
<text xml:space="preserve" transform="matrix(1 0 -0 1 0 792)" font-size="9.9626" font-family="SFRM1000"><tspan y="-394.819" x="203.25">&#x2217;</tspan></text>
<text xml:space="preserve" transform="matrix(1 0 -0 1 0 792)" font-size="9.9626" font-family="CMR10"><tspan y="-394.819" x="207.973">=</tspan></text>
<text xml:space="preserve" transform="matrix(1 0 -0 1 0 792)" font-size="9.9626" font-family="SFRM1000"><tspan y="-394.819" x="221.05501">&#x2212;</tspan></text>
<text xml:space="preserve" transform="matrix(1 0 -0 1 0 792)" font-size="9.9626" font-family="CMR10"><tspan y="-394.819" x="228.608">1</tspan><tspan y="-382.864" x="122.002 128.60721 133.55863 138.51004 150.59467 157.02054 162.8885 175.10266 181.00054 188.02416 192.26824 196.51232 205.12996">elifnotchild:</tspan><tspan y="-370.90904" x="145.102 150.4021 156.19039 162.54651 167.81673 178.70586">score=</tspan></text>
<text xml:space="preserve" transform="matrix(1 0 -0 1 0 792)" font-size="9.9626" font-family="SFRM1000"><tspan y="-370.90904" x="190.373">&#x2212;</tspan></text>
<text xml:space="preserve" transform="matrix(1 0 -0 1 0 792)" font-size="9.9626" font-family="CMR10"><tspan y="-370.90904" x="199.479 205.35694 211.72304 216.44532 223.04056 226.25849 234.44774 240.24597 246.09401 252.50992 258.35798 264.78385 271.82743 276.10139 282.58705 289.35166 295.27943">self.m(abs(player</tspan></text>
<path transform="matrix(1,0,0,-1,301.281,420.892)" stroke-width=".398" stroke-linecap="butt" stroke-miterlimit="10" stroke-linejoin="miter" fill="none" stroke="#000000" d="M 0 0 L 2.989 0 "/>
<text xml:space="preserve" transform="matrix(1 0 -0 1 0 792)" font-size="9.9626" font-family="CMR10"><tspan y="-370.909" x="305.774 310.04795">id</tspan></text>
<text xml:space="preserve" transform="matrix(1 0 -0 1 0 792)" font-size="9.9626" font-family="SFRM1000"><tspan y="-370.909" x="321.882">&#x2212;</tspan></text>
<text xml:space="preserve" transform="matrix(1 0 -0 1 0 792)" font-size="9.9626" font-family="CMR10"><tspan y="-370.909" x="336.27799 342.52455 348.92054">1),</tspan></text>
<text xml:space="preserve" transform="matrix(1 0 -0 1 0 792)" font-size="9.9626" font-family="SFRM1000"><tspan y="-370.909" x="357.74699">&#x2212;</tspan></text>
<text xml:space="preserve" transform="matrix(1 0 -0 1 0 792)" font-size="9.9626" font-family="CMR10"><tspan y="-370.909" x="366.166 371.85466 378.09123 382.12608 388.36265 396.40248">color,</tspan></text>
<text xml:space="preserve" transform="matrix(1 0 -0 1 0 792)" font-size="9.9626" font-family="SFRM1000"><tspan y="-370.909" x="405.56898">&#x2212;</tspan></text>
<text xml:space="preserve" transform="matrix(1 0 -0 1 0 792)" font-size="9.9626" font-family="CMR10"><tspan y="-370.909" x="414.00398 422.47218 428.73866 433.9192 439.11967">worst</tspan></text>
<path transform="matrix(1,0,0,-1,444.875,420.892)" stroke-width=".398" stroke-linecap="butt" stroke-miterlimit="10" stroke-linejoin="miter" fill="none" stroke="#000000" d="M 0 0 L 2.989 0 "/>
<text xml:space="preserve" transform="matrix(1 0 -0 1 0 792)" font-size="9.9626" font-family="CMR10"><tspan y="-370.909" x="449.142 454.34248 460.05107 466.30757 471.4881 480.07588">score,</tspan></text>
<text xml:space="preserve" transform="matrix(1 0 -0 1 0 792)" font-size="9.9626" font-family="SFRM1000"><tspan y="-358.954" x="238.19499">&#x2212;</tspan></text>
<text xml:space="preserve" transform="matrix(1 0 -0 1 0 792)" font-size="9.9626" font-family="CMR10"><tspan y="-358.954" x="246.74799 253.68195 259.50013 264.82017">best</tspan></text>
<path transform="matrix(1,0,0,-1,270.697,432.847)" stroke-width=".398" stroke-linecap="butt" stroke-miterlimit="10" stroke-linejoin="miter" fill="none" stroke="#000000" d="M 0 0 L 2.989 0 "/>
<text xml:space="preserve" transform="matrix(1 0 -0 1 0 792)" font-size="9.9626" font-family="CMR10"><tspan y="-358.954" x="275.082 280.40205 286.2202 292.60624 297.90635 306.72325 317.91123 324.27735 329.52766 335.90373 340.60609">score,depth</tspan></text>
<text xml:space="preserve" transform="matrix(1 0 -0 1 0 792)" font-size="9.9626" font-family="SFRM1000"><tspan y="-358.954" x="351.77003">&#x2212;</tspan></text>
<text xml:space="preserve" transform="matrix(1 0 -0 1 0 792)" font-size="9.9626" font-family="CMR10"><tspan y="-358.954" x="366.657 373.39173 379.0206 383.5436 390.27833">1)[1]</tspan><tspan y="-346.99903" x="121.49301 127.59012 132.03345 137.62247 145.32357">else:</tspan><tspan y="-335.04405" x="145.102 150.4021 156.19039 162.54651 167.81673 178.70586">score=</tspan></text>
<text xml:space="preserve" transform="matrix(1 0 -0 1 0 792)" font-size="9.9626" font-family="SFRM1000"><tspan y="-335.04405" x="190.373">&#x2212;</tspan></text>
<text xml:space="preserve" transform="matrix(1 0 -0 1 0 792)" font-size="9.9626" font-family="CMR10"><tspan y="-335.04405" x="199.479 205.35694 211.72304 216.44532 223.04056 226.25849 234.44774 240.24597 246.09401 252.50992 258.35798 264.78385 271.82743 276.10139 282.58705 289.35166 295.27943">self.m(abs(player</tspan></text>
<path transform="matrix(1,0,0,-1,301.281,456.757)" stroke-width=".398" stroke-linecap="butt" stroke-miterlimit="10" stroke-linejoin="miter" fill="none" stroke="#000000" d="M 0 0 L 2.989 0 "/>
<text xml:space="preserve" transform="matrix(1 0 -0 1 0 792)" font-size="9.9626" font-family="CMR10"><tspan y="-335.044" x="305.774 310.04795">id</tspan></text>
<text xml:space="preserve" transform="matrix(1 0 -0 1 0 792)" font-size="9.9626" font-family="SFRM1000"><tspan y="-335.044" x="321.882">&#x2212;</tspan></text>
<text xml:space="preserve" transform="matrix(1 0 -0 1 0 792)" font-size="9.9626" font-family="CMR10"><tspan y="-335.044" x="336.27799 342.52455 348.92054">1),</tspan></text>
<text xml:space="preserve" transform="matrix(1 0 -0 1 0 792)" font-size="9.9626" font-family="SFRM1000"><tspan y="-335.044" x="357.74699">&#x2212;</tspan></text>
<text xml:space="preserve" transform="matrix(1 0 -0 1 0 792)" font-size="9.9626" font-family="CMR10"><tspan y="-335.044" x="366.166 371.85466 378.09123 382.12608 388.36265 396.40248">color,</tspan></text>
<text xml:space="preserve" transform="matrix(1 0 -0 1 0 792)" font-size="9.9626" font-family="SFRM1000"><tspan y="-335.044" x="405.56898">&#x2212;</tspan></text>
<text xml:space="preserve" transform="matrix(1 0 -0 1 0 792)" font-size="9.9626" font-family="CMR10"><tspan y="-335.044" x="414.24897 421.31248 427.26017 432.70973">best</tspan></text>
<path transform="matrix(1,0,0,-1,438.706,456.757)" stroke-width=".398" stroke-linecap="butt" stroke-miterlimit="10" stroke-linejoin="miter" fill="none" stroke="#000000" d="M 0 0 L 2.989 0 "/>
<text xml:space="preserve" transform="matrix(1 0 -0 1 0 792)" font-size="9.9626" font-family="CMR10"><tspan y="-335.044" x="443.218 448.66755 454.61524 461.12083 466.55046">score</tspan></text>
<text xml:space="preserve" transform="matrix(1 0 -0 1 0 792)" font-size="9.9626" font-family="SFRM1000"><tspan y="-335.044" x="477.3">&#x2212;</tspan></text>
<text xml:space="preserve" transform="matrix(1 0 -0 1 0 792)" font-size="9.9626" font-family="CMR10"><tspan y="-335.044" x="491.487 498.5704">1,</tspan></text>
<text xml:space="preserve" transform="matrix(1 0 -0 1 0 792)" font-size="9.9626" font-family="SFRM1000"><tspan y="-323.088" x="238.19499">&#x2212;</tspan></text>
<text xml:space="preserve" transform="matrix(1 0 -0 1 0 792)" font-size="9.9626" font-family="CMR10"><tspan y="-323.088" x="246.74799 253.68195 259.50013 264.82017">best</tspan></text>
<path transform="matrix(1,0,0,-1,270.697,468.712)" stroke-width=".398" stroke-linecap="butt" stroke-miterlimit="10" stroke-linejoin="miter" fill="none" stroke="#000000" d="M 0 0 L 2.989 0 "/>
<text xml:space="preserve" transform="matrix(1 0 -0 1 0 792)" font-size="9.9626" font-family="CMR10"><tspan y="-323.088" x="275.082 280.40205 286.2202 292.60624 297.90635 306.72325 317.91123 324.27735 329.52766 335.90373 340.60609">score,depth</tspan></text>
<text xml:space="preserve" transform="matrix(1 0 -0 1 0 792)" font-size="9.9626" font-family="SFRM1000"><tspan y="-323.088" x="351.77003">&#x2212;</tspan></text>
<text xml:space="preserve" transform="matrix(1 0 -0 1 0 792)" font-size="9.9626" font-family="CMR10"><tspan y="-323.088" x="366.657 373.39173 379.0206 383.5436 390.27833">1)[1]</tspan><tspan y="-311.13304" x="145.78002 150.60192 163.19464 170.25812 176.2058 181.65534">ifbest</tspan></text>
<path transform="matrix(1,0,0,-1,187.645,480.667)" stroke-width=".398" stroke-linecap="butt" stroke-miterlimit="10" stroke-linejoin="miter" fill="none" stroke="#000000" d="M 0 0 L 2.989 0 "/>
<text xml:space="preserve" transform="matrix(1 0 -0 1 0 792)" font-size="9.9626" font-family="CMR10"><tspan y="-311.133" x="192.157 197.60654 203.55422 210.05979 215.4894">score</tspan></text>
<text xml:space="preserve" transform="matrix(1 0 -0 1 0 792)" font-size="9.9626" font-family="CMMI10" font-style="italic"><tspan y="-311.133" x="226.238">&#x003c;</tspan></text>
<text xml:space="preserve" transform="matrix(1 0 -0 1 0 792)" font-size="9.9626" font-family="CMR10"><tspan y="-311.133" x="240.744 246.0441 251.83238 258.18855 263.45875 275.7028 281.1523 287.15977 300.51963 305.81974 311.608 317.96415 323.23435">scoreandscore</tspan></text>
<text xml:space="preserve" transform="matrix(1 0 -0 1 0 792)" font-size="9.9626" font-family="CMMI10" font-style="italic"><tspan y="-311.133" x="333.836">&#x003c;</tspan></text>
<text xml:space="preserve" transform="matrix(1 0 -0 1 0 792)" font-size="9.9626" font-family="CMR10"><tspan y="-311.133" x="348.356 356.93379 363.29988 368.59 373.90007">worst</tspan></text>
<path transform="matrix(1,0,0,-1,379.76,480.667)" stroke-width=".398" stroke-linecap="butt" stroke-miterlimit="10" stroke-linejoin="miter" fill="none" stroke="#000000" d="M 0 0 L 2.989 0 "/>
<text xml:space="preserve" transform="matrix(1 0 -0 1 0 792)" font-size="9.9626" font-family="CMR10"><tspan y="-311.133" x="384.134 389.44407 395.25227 401.61836 406.90849 414.32066">score:</tspan><tspan y="-299.178" x="169.01201 174.3121 180.10039 186.45652 191.72673 202.61586">score=</tspan></text>
<text xml:space="preserve" transform="matrix(1 0 -0 1 0 792)" font-size="9.9626" font-family="SFRM1000"><tspan y="-299.178" x="214.28401">&#x2212;</tspan></text>
<text xml:space="preserve" transform="matrix(1 0 -0 1 0 792)" font-size="9.9626" font-family="CMR10"><tspan y="-299.178" x="223.389 229.26694 235.63304 240.35532 246.95056 250.16849 258.35777 264.156 270.00407 276.41999 282.26805 288.6939 295.7375 300.01145 306.4971 313.26173 319.18949">self.m(abs(player</tspan></text>
<path transform="matrix(1,0,0,-1,325.191,492.623)" stroke-width=".398" stroke-linecap="butt" stroke-miterlimit="10" stroke-linejoin="miter" fill="none" stroke="#000000" d="M 0 0 L 2.989 0 "/>
<text xml:space="preserve" transform="matrix(1 0 -0 1 0 792)" font-size="9.9626" font-family="CMR10"><tspan y="-299.178" x="329.684 333.95796">id</tspan></text>
<text xml:space="preserve" transform="matrix(1 0 -0 1 0 792)" font-size="9.9626" font-family="SFRM1000"><tspan y="-299.178" x="345.792">&#x2212;</tspan></text>
<text xml:space="preserve" transform="matrix(1 0 -0 1 0 792)" font-size="9.9626" font-family="CMR10"><tspan y="-299.178" x="360.189 366.43556 372.83155">1),</tspan></text>
<text xml:space="preserve" transform="matrix(1 0 -0 1 0 792)" font-size="9.9626" font-family="SFRM1000"><tspan y="-299.178" x="381.658">&#x2212;</tspan></text>
<text xml:space="preserve" transform="matrix(1 0 -0 1 0 792)" font-size="9.9626" font-family="CMR10"><tspan y="-299.178" x="390.076 395.76466 402.00123 406.03608 412.27265 420.31248">color,</tspan></text>
<text xml:space="preserve" transform="matrix(1 0 -0 1 0 792)" font-size="9.9626" font-family="SFRM1000"><tspan y="-287.22303" x="262.10499">&#x2212;</tspan></text>
<text xml:space="preserve" transform="matrix(1 0 -0 1 0 792)" font-size="9.9626" font-family="CMR10"><tspan y="-287.22303" x="270.53999 279.00819 285.27467 290.4552 295.65568">worst</tspan></text>
<path transform="matrix(1,0,0,-1,301.412,504.578)" stroke-width=".398" stroke-linecap="butt" stroke-miterlimit="10" stroke-linejoin="miter" fill="none" stroke="#000000" d="M 0 0 L 2.989 0 "/>
<text xml:space="preserve" transform="matrix(1 0 -0 1 0 792)" font-size="9.9626" font-family="CMR10"><tspan y="-287.223" x="305.679 310.87947 316.58805 322.84455 328.0251 336.61286">score,</tspan></text>
<text xml:space="preserve" transform="matrix(1 0 -0 1 0 792)" font-size="9.9626" font-family="SFRM1000"><tspan y="-287.223" x="345.792">&#x2212;</tspan></text>
<text xml:space="preserve" transform="matrix(1 0 -0 1 0 792)" font-size="9.9626" font-family="CMR10"><tspan y="-287.223" x="354.34599 361.27998 367.09815 372.41819">best</tspan></text>
<path transform="matrix(1,0,0,-1,378.295,504.578)" stroke-width=".398" stroke-linecap="butt" stroke-miterlimit="10" stroke-linejoin="miter" fill="none" stroke="#000000" d="M 0 0 L 2.989 0 "/>
<text xml:space="preserve" transform="matrix(1 0 -0 1 0 792)" font-size="9.9626" font-family="CMR10"><tspan y="-287.223" x="382.68 388.00004 393.8182 400.20423 405.50434 414.32124 425.50923 431.87535 437.12565 443.49177 448.20408">score,depth</tspan></text>
<text xml:space="preserve" transform="matrix(1 0 -0 1 0 792)" font-size="9.9626" font-family="SFRM1000"><tspan y="-287.223" x="459.367">&#x2212;</tspan></text>
<text xml:space="preserve" transform="matrix(1 0 -0 1 0 792)" font-size="9.9626" font-family="CMR10"><tspan y="-287.223" x="474.255 480.98973 486.6186 491.1416 497.8763">1)[1]</tspan><tspan y="-275.268" x="121.76901 127.64694 134.01305 138.73532 145.33057 150.71038 157.2558 163.24332 169.23084 174.1424">self.board</tspan></text>
<path transform="matrix(1,0,0,-1,181.271,516.53298)" stroke-width=".398" stroke-linecap="butt" stroke-miterlimit="10" stroke-linejoin="miter" fill="none" stroke="#000000" d="M 0 0 L 2.989 0 "/>
<text xml:space="preserve" transform="matrix(1 0 -0 1 0 792)" font-size="9.9626" font-family="CMR10"><tspan y="-275.268" x="185.264 190.69364 196.68115 203.22658 211.09703 215.9289 221.93634 227.94379 233.94127 240.79553 246.06575">copy.undo()</tspan><tspan y="-263.31303" x="121.869 126.6909 139.13419 144.42433 150.22257 156.56874 161.8489">ifscore</tspan></text>
<text xml:space="preserve" transform="matrix(1 0 -0 1 0 792)" font-size="9.9626" font-family="CMMI10" font-style="italic"><tspan y="-263.31303" x="172.439">&#x003e;</tspan></text>
<text xml:space="preserve" transform="matrix(1 0 -0 1 0 792)" font-size="9.9626" font-family="CMR10"><tspan y="-263.31303" x="187.09799 194.16147 200.10915 205.55869">best</tspan></text>
<path transform="matrix(1,0,0,-1,211.555,528.48806)" stroke-width=".398" stroke-linecap="butt" stroke-miterlimit="10" stroke-linejoin="miter" fill="none" stroke="#000000" d="M 0 0 L 2.989 0 "/>
<text xml:space="preserve" transform="matrix(1 0 -0 1 0 792)" font-size="9.9626" font-family="CMR10"><tspan y="-263.313" x="216.067 221.51654 227.46422 233.96979 239.3994 246.95105">score:</tspan><tspan y="-251.357" x="145.255 152.31848 158.26616 163.7157">best</tspan></text>
<path transform="matrix(1,0,0,-1,169.712,540.443)" stroke-width=".398" stroke-linecap="butt" stroke-miterlimit="10" stroke-linejoin="miter" fill="none" stroke="#000000" d="M 0 0 L 2.989 0 "/>
<text xml:space="preserve" transform="matrix(1 0 -0 1 0 792)" font-size="9.9626" font-family="CMR10"><tspan y="-251.357" x="174.224 179.67354 185.62122 192.12679 197.5564 208.59497 222.80164 228.10173 233.89002 240.24614 245.51636">score=score</tspan><tspan y="-239.402" x="145.218 152.24163 158.14945 163.56909">best</tspan></text>
<path transform="matrix(1,0,0,-1,169.527,552.398)" stroke-width=".398" stroke-linecap="butt" stroke-miterlimit="10" stroke-linejoin="miter" fill="none" stroke="#000000" d="M 0 0 L 2.989 0 "/>
<text xml:space="preserve" transform="matrix(1 0 -0 1 0 792)" font-size="9.9626" font-family="CMR10"><tspan y="-239.402" x="174.002 180.46772 186.37554 191.74538 195.9994 202.46512 214.57964 228.75641 235.06273 240.81116 246.0216 250.11624 256.42256">action=action</tspan><tspan y="-227.44699" x="121.869 126.6909 139.14415 147.72194 154.08803 159.37816 164.68822">ifworst</tspan></text>
<path transform="matrix(1,0,0,-1,170.543,564.354)" stroke-width=".398" stroke-linecap="butt" stroke-miterlimit="10" stroke-linejoin="miter" fill="none" stroke="#000000" d="M 0 0 L 2.989 0 "/>
<text xml:space="preserve" transform="matrix(1 0 -0 1 0 792)" font-size="9.9626" font-family="CMR10"><tspan y="-227.447" x="174.916 180.22606 186.03426 192.40035 197.69048">score</tspan></text>
<text xml:space="preserve" transform="matrix(1 0 -0 1 0 792)" font-size="9.9626" font-family="CMMI10" font-style="italic"><tspan y="-227.447" x="207.715">&#x003c;</tspan></text>
<text xml:space="preserve" transform="matrix(1 0 -0 1 0 792)" font-size="9.9626" font-family="CMR10"><tspan y="-227.447" x="214.578 228.94408 236.00756 241.95523 247.40477">=best</tspan></text>
<path transform="matrix(1,0,0,-1,253.399,564.354)" stroke-width=".398" stroke-linecap="butt" stroke-miterlimit="10" stroke-linejoin="miter" fill="none" stroke="#000000" d="M 0 0 L 2.989 0 "/>
<text xml:space="preserve" transform="matrix(1 0 -0 1 0 792)" font-size="9.9626" font-family="CMR10"><tspan y="-227.447" x="257.911 263.36058 269.30827 275.81385 281.24348 288.79515">score:</tspan><tspan y="-215.492" x="144.69602 151.20159 156.06333 161.4531 167.40076 184.41689 198.53389 206.72315 212.71067 217.61226 222.54375 234.76787 240.05802 245.85625 252.20243 257.4826 270.07536 275.31568 281.6718">break#worstscorecut</tspan></text>
<text xml:space="preserve" transform="matrix(1 0 -0 1 0 792)" font-size="9.9626" font-family="SFRM1000"><tspan y="-215.492" x="286.31105">&#x2212;</tspan></text>
<text xml:space="preserve" transform="matrix(1 0 -0 1 0 792)" font-size="9.9626" font-family="CMR10"><tspan y="-215.492" x="294.88905 301.5839 306.346">off</tspan><tspan y="-203.537" x="97.959049 102.77098 115.80206 121.67003 128.0461 132.7584 139.36362 144.74343 149.63507 153.4109 162.72594 168.15557 174.14308 180.69847 187.18413">ifself.timeout:</tspan><tspan y="-191.582" x="121.307048 128.33068 134.2385 139.65814">best</tspan></text>
<path transform="matrix(1,0,0,-1,145.616,600.219)" stroke-width=".398" stroke-linecap="butt" stroke-miterlimit="10" stroke-linejoin="miter" fill="none" stroke="#000000" d="M 0 0 L 2.989 0 "/>
<text xml:space="preserve" transform="matrix(1 0 -0 1 0 792)" font-size="9.9626" font-family="CMR10"><tspan y="-191.582" x="150.091 156.55672 162.46454 167.83438 172.08841 178.55413 190.66864 204.84542 211.15174 216.90016 222.11061 226.20525 232.51157">action=action</tspan><tspan y="-179.626" x="97.15201 102.30267 107.961429 113.0822 119.856769 125.00743 139.1344 146.04843 151.84667 157.13681">returnbest</tspan></text>
<path transform="matrix(1,0,0,-1,162.978,612.174)" stroke-width=".398" stroke-linecap="butt" stroke-miterlimit="10" stroke-linejoin="miter" fill="none" stroke="#000000" d="M 0 0 L 2.989 0 "/>
<text xml:space="preserve" transform="matrix(1 0 -0 1 0 792)" font-size="9.9626" font-family="CMR10"><tspan y="-179.626" x="167.338 173.69412 179.4824 184.7327 188.87714 195.23326 205.11615 216.99158 224.05506 230.00273 235.45227">action,best</tspan></text>
<path transform="matrix(1,0,0,-1,241.444,612.174)" stroke-width=".398" stroke-linecap="butt" stroke-miterlimit="10" stroke-linejoin="miter" fill="none" stroke="#000000" d="M 0 0 L 2.989 0 "/>
<text xml:space="preserve" transform="matrix(1 0 -0 1 0 792)" font-size="9.9626" font-family="CMR10"><tspan y="-179.626" x="245.956 251.40554 257.3532 263.8588 269.28843">score</tspan></text>
<text xml:space="preserve" transform="matrix(1 0 -0 1 0 792)" font-size="9.9626" font-family="CMR10"><tspan y="-72.00001" x="303.509">4</tspan></text>
</g>
</svg>
