<?xml version="1.0" encoding="UTF-8" standalone="no"?>
<!DOCTYPE svg PUBLIC "-//W3C//DTD SVG 1.1//EN" "http://www.w3.org/Graphics/SVG/1.1/DTD/svg11.dtd">
<svg xmlns="http://www.w3.org/2000/svg" xmlns:xlink="http://www.w3.org/1999/xlink" version="1.1" width="612pt" height="792pt" viewBox="0 0 612 792">
<g enable-background="new">
<text xml:space="preserve" transform="matrix(1 0 -0 1 0 792)" font-size="14.3462" font-family="CMBX12" font-weight="bold"><tspan y="-710.037" x="72 96.216388 108.58281 113.07317 119.44289 126.61599 135.58237 141.95209 148.32181 152.81217 160.88907">4Discussion</tspan></text>
<text xml:space="preserve" transform="matrix(1 0 -0 1 0 792)" font-size="9.9626" font-family="CMR10"><tspan y="-688.216" x="72 78.22662 82.65002 91.2577 95.18296 99.60635 104.587657 108.493 112.91639 121.52407 127.06328 136.1691 141.42935 144.19896 148.62236 152.49782 157.47911 160.24872 164.15406 173.24991 177.17517 182.15647 187.42667 195.97458 201.51378 204.28339 209.82259 218.43027 222.35553 226.77893 230.68427 234.31066 234.5896 243.69542 248.95568 254.49488 257.26448 262.24577 266.12123 269.99668 274.42008 279.9593 285.4985 291.03773 302.31538 309.78733 314.76863 320.29789 328.90559 333.6179 338.59919 343.58049 349.1197 357.7274 363.25666 368.23796 373.77717 382.883 387.3064 392.2877 400.58656 406.12577 408.89537 411.386 411.66493 420.77076 423.54035 432.64619 436.52165 440.94505 449.2439 454.7831 463.3908 468.93003 471.69963 476.12303 481.1043 481.38325 485.80665 490.23005 495.76927 499.6447 502.4143 507.3956 517.6073 523.1465 532.2523 535.0219">Lesscoresdevictoiresontplusserr&#x00b4;equ&#x2019;attendu.Nousavonsdonccompil&#x00b4;eletempsd&#x2019;ex&#x00b4;ecutiondela</tspan><tspan y="-676.261" x="72 77.53921 81.44455 85.86794 94.16679 96.65743 96.936389 101.35978 105.26512 113.18539 118.16669 122.59008 126.46553 129.23514 134.21643 143.2525 148.7917 156.71198 160.85643 166.39563 171.37693 176.63718 182.17638 190.09665 193.69315 204.66197 209.36432 214.34563 218.76903 226.6893 232.2285 236.6519 244.07404 249.61324 253.51857 258.49989 261.54844 266.52973 272.06895 277.60816 282.03157 287.57078 294.973 300.5122 308.4325 316.91069 316.91069 325.38887 333.85707 337.79228 343.32154 350.72377 356.26298 360.68638 368.10853 373.64775 376.41734 381.39863 385.27409 389.69749 394.67878 400.218 408.97514 414.51435 422.43464 426.3101 431.29139 434.06098 436.83058 439.60017 447.52046 455.99864 455.99864 464.4768 469.4581 477.93629 482.6386 487.6199 492.0433 499.9636 505.5028 511.04203 518.9623 522.8676 527.291 530.0606 535.5998">premi`ereactiondechaqueIAavecdesprofondeurde1`a2surdesplateauxdetaille2`a10avecunereine</tspan><tspan y="-664.30599" x="72 77.53921 82.52051 89.74339 92.79195 97.77325 103.312458 107.73585 113.275058 120.49794 124.65234 130.19155 135.17284 139.59624 145.13544 150.67464 158.41559 162.34085 167.88005 175.10294 180.64214 186.18134 193.93225 198.35565 203.33695 207.2622 215.00316 220.54236 228.28331 232.71668 237.69797 240.46758 249.32433 254.30562 259.84483 265.663 270.6443 274.2906 274.56953 278.99293">parjoueurchacunesurunecasedecoinoppos&#x00b4;e:</tspan><tspan y="-646.373" x="72 78.22662 82.65002 90.30129 96.10949 100.53288 104.438228 107.48678 112.46808 120.76692 125.74822 131.28743 135.71083 140.13423 147.7855 153.3247 161.46416 167.83026 172.81156 178.35076 182.25609 187.79529 192.77658 195.54619 203.01815 206.61464 213.39917 216.16878 220.87113 225.85243 230.27584 237.90718 241.83245 244.60205 249.3044 254.2857 254.56465 258.98805 262.89338 267.31678 272.57704 280.1785 284.05397 287.68034 287.95927 292.38267 300.024 308.32286 313.30415 318.84336 323.55567 328.53697 331.30656 335.2318 339.6552 343.58049 351.97895 359.17195 363.59535 366.36494 375.0623 379.4857 383.41096 391.01243 396.82063 396.5516 405.8069 405.8069 414.50425 417.27384 420.04344 425.02473 428.93006 434.46928 438.3746 446.52403 452.06324 456.48664 464.12797 469.10926 473.53266 477.4081 480.1777 485.159 490.6982 498.3495 502.22496 506.13029 511.11158 516.65078 520.57608 528.8749 531.6445 536.0679">LesperfomancesdeTournoiAIPlayers&#x2019;av`erenttr`esmauvaises.Celaestd&#x02c6;u`al&#x2019;ordredesactionstransmies</tspan><tspan y="-634.41799" x="72 77.53921 82.52051 89.74339 94.72469 99.70599 102.47559 110.77444 119.083248 119.083248 127.38209 134.85404 139.27744 144.25873 149.24002 153.16529 157.58869 162.56998 168.10918 171.98464 179.17765 186.3806 190.804 197.99701 202.9783 206.88364 212.42284 216.32817 224.06912 228.49253 232.41779 239.62076 245.42896 250.41025 259.27696 267.5758 272.5571 275.3267 282.5695 290.86836 295.84965 301.38887 306.6491 312.18833 319.92927 325.46849 333.2194 338.7586 343.7399 347.64524 352.62654 360.64643 360.92536 365.34877 369.2242 373.12956 377.55296 381.4782">par&#x201d;aim&#x201d;`aNegascout.Cetordreestbonmaismanquedeparam`etres.</tspan><tspan y="-616.485" x="72 79.471958 83.89535 88.87665 93.85795 97.78321 102.206607 107.187908 112.72711 119.790599 124.21399 128.63739 134.17659 137.8229 138.10186 145.43433 145.70331 150.13668 154.01213 157.9075 165.51894 171.05814 173.82775 179.36695 186.48024 190.38558 195.36687 200.90607 203.67568 209.21488 216.81635 222.0766 227.6158 235.22724 244.36295 247.13256 252.67176 255.44136 263.7402 268.7215 277.15983 282.69905 285.46864 289.89204 293.8173 300.88078 303.65037 306.41996 310.84336 313.61296 319.59049 325.1297 330.111 337.22428 342.20558 347.74479 351.62025 354.38984 362.6887 365.45829 369.10459 369.3835 376.99494 381.41835 388.47187 393.18418 398.16548 402.58888 410.2003 415.72956 421.26878 428.8802 434.4194 438.32475 443.30604 446.35459 451.33589 456.8751 462.4143 466.8377 472.37693 479.47029 485.0095 492.61097 497.59226 503.57978 506.34938 513.9508 517.82626 522.24966 530.54849 536.08767">Negascoutcens&#x00b4;e&#x02c6;etreplusrapidequeMinimaxn&#x2019;est,ici,pasoptimis&#x00b4;eetavecuneprofondeurde2,letemps</tspan><tspan y="-604.52999" x="72 77.53921 80.30881 84.7322 89.992458 94.41585 98.83924 104.37845 108.2539 111.0235 116.0048 124.59256 130.13176 135.11305 140.65225 146.19145 148.96106 156.42305 156.42305 164.4529 168.6073 174.13654 179.11783 184.37808 189.91728 197.38924 200.15885 205.69805 210.12145 213.74784 214.02678 218.45018 226.74903 231.17243 236.44263 243.35668 248.89588 256.36784 264.39768 269.9369 277.40885 280.17845 288.19834 292.0738 297.05509 299.82469 302.59428 305.36387 312.83583 318.37504 325.847 331.3862 334.1558 339.1371 343.01255 347.43595 352.41725 357.95646 365.05979 371.2864 374.056 379.0373 382.94264 388.48185 392.38719 399.85914 405.39836 409.82176 416.79557 421.77687 426.20027 430.0757 432.8453 437.8266 443.3658 450.33964 455.87886 460.86015 463.62974 470.5438 476.083 481.0643 486.60353 493.7965 494.07545 498.49885 502.3743 506.27964 513.7516 522.0504 524.82 529.2434 534.7826">d&#x2019;executiondouble`achaqueincr&#x00b4;ementde1delatailledeplateau.L&#x2019;ordredesactionsdoitdonc&#x02c6;etremieux</tspan><tspan y="-592.57498" x="72 75.87545 79.78079 82.27144 82.55039 86.973789 94.71472 99.138118 108.00483 112.98613 121.28497 126.26627 131.52654 135.402 138.1716">tri&#x00b4;eeenamont..</tspan><tspan y="-574.64199" x="72 79.471958 85.01116 92.13442 97.11572 102.65493 106.53038 110.43572 117.54902 121.97241 126.95371 132.49292 136.41819 143.54145 149.08065 152.98598 157.96727 163.50647 168.48777 174.02696 176.79657 183.91983 188.34323 192.2685 198.83385 204.0941 209.6333 216.75656 219.52617 227.20732 231.13259 235.55599 241.09519 243.86479 250.98805 256.52726 260.95066 266.48988 270.3952 273.15486 277.09007 280.9655 283.72517 288.9854 294.52464 301.6479 305.52336 309.94676 313.872 317.74748 320.51707 328.81593 333.7972 337.67268 340.44227 345.42356 353.66264 359.20185 366.3251 369.0947 376.7659 382.02616 387.56538 392.54667 395.31626 398.08586 401.68235 401.96128 409.08454 414.62376 417.39335 422.93257 431.16169 435.08695 439.24137 439.5203 443.9437 449.4829 454.4642 458.3596 461.12919 468.81034 474.6285 479.6098 483.53507 487.46034 490.22993 495.76914 498.53874 502.96214 509.53746 515.07669 518.9521 521.7217 524.4913 527.26089 530.9072 531.1862 535.6096">Uneautrecauseprobableestquelaseuleheuristique(estimationdelaqualit&#x00b4;ed&#x2019;unsc&#x00b4;enariopossible)utilis&#x00b4;ee</tspan><tspan y="-562.68698" x="72 77.53921 82.52051 89.74339 96.1095 101.0908 106.630008 110.53535 116.074558 121.055858 123.825458 131.29741 134.8939 141.67844 144.44805 149.15039 154.1317 158.5551 165.78795 170.21135 175.19264 183.49149 189.03069 194.01198 197.91732 205.65827 208.42787 212.85128 220.09409 224.01935 228.44275 233.42404 237.32938 241.75278 249.00556 254.26581 259.80503 265.89216 269.7975 274.2209 278.14616 282.0216 286.445 291.70527 298.62928 298.9082 303.3316 308.3129 313.2942 318.8334 327.4112 327.4112 335.71003 344.01884 347.8943 352.87559 358.13584 365.32884 370.58909 376.1283 378.8979 384.4371 389.97633 397.71726 401.3536 401.6226 406.046 411.02729 413.79689 418.77818 427.6449 433.1841 435.9537 444.25254 449.79176 454.77305 461.74687 462.01585 466.43925 470.04573 470.3147 478.0656 481.11418 486.09547 490.0008 498.0207 498.29963 502.72303 507.14643">parTournoiAIPlayercomparelesscoresquirestent&#x00b4;egaux`a0tantqu&#x2019;uner&#x00b4;egionn&#x2019;apas&#x00b4;et&#x00b4;eform&#x00b4;ee.</tspan></text>
<text xml:space="preserve" transform="matrix(1 0 -0 1 0 792)" font-size="14.3462" font-family="CMBX12" font-weight="bold"><tspan y="-529.74099" x="72 96.216388 107.879848 115.95676 124.923137 132.09624 136.5866 145.55297 151.92269 156.41304 164.48995">5Conclusion</tspan></text>
<text xml:space="preserve" transform="matrix(1 0 -0 1 0 792)" font-size="9.9626" font-family="CMR10"><tspan y="-507.91999" x="72 78.50558 83.48688 89.026088 95.30253 99.72592 104.70722 110.24643 114.66982 117.43942 122.97863 126.88397 131.30738 136.64734 139.41695 143.84035 150.1367 152.90631 158.16657 158.44551 162.86891 167.29232 173.58867 176.35828 184.65712 190.19632 192.68698 192.96593 197.38933 205.68817 210.11157 215.38178 218.97829 219.25724 223.68064 228.10404 234.40039 239.93959 244.92089 250.46009 256.75645 263.12254 268.10383 273.64305 277.54838 283.0876 288.06889 290.83848 298.31044 301.90693 308.69148 311.46107 316.1634 321.14469 325.56809 331.8445 335.76979 340.75108 346.0213 352.26786 355.03746 360.2977 363.8942 364.17314 368.59654 372.50187 376.92527 380.85054 384.7758 389.75709 395.01734 398.8928 403.3162 409.62254 417.9214 422.90269 425.67228 431.96864 437.50785 443.04707 449.84156 458.1404 463.1217 468.66093 473.37324 478.35453 481.1241 485.04939 491.84388 496.82518 502.36439 507.9036 510.6732 513.4428 517.8662 522.84756 526.72299 529.49258 534.4739">Pourconclure,lesid&#x00b4;eesimpl&#x00b4;ement&#x00b4;eesdansTournoiAIPlayersontint&#x00b4;eressantesmaisunemauvaiseapplication</tspan><tspan y="-495.965" x="72 77.53921 85.28014 88.04974 96.35855 101.89776 105.8031 108.5727 114.11191 118.5353 121.3049 126.84411 131.82541 134.58506 142.33597 147.03832 152.0196 155.92494 158.69455 163.67584 167.5513 170.3209 175.3022 184.16892 188.09418 192.51758 197.49887 201.4042 205.54866 214.40541 218.82881 227.68556 230.73412 235.71541 238.48502 245.68799 251.22719 256.7664 264.50733 268.10383 278.8933 284.7115 289.1349 294.11619 299.6554 304.0788 309.0601 314.5993 323.45606 328.99528 331.76487 337.30409 344.55686 347.32646 351.74986 357.0101 360.88557 368.6265 373.88676 379.42597 387.17689 396.3126 399.08219 404.6214 407.391 415.68986 420.67115 425.9314">delaprincipalevariationsearchenfaituneIAbeaucouppluslentequeMinimax.</tspan><tspan y="-478.03199" x="72 78.78453 81.55413 84.32373 91.79568 96.21907 100.14433 107.06834 115.36718 120.34848 123.11808 128.09938 131.72577 132.00472 139.47667 143.35213 148.33342 153.87262 160.79663 166.05689 168.82649 173.2499 177.12535 182.10665 186.01198 188.78159 193.20499 198.74419 202.66945 210.1414 215.6806 220.6619 226.2011 233.16495 238.70415 244.24335 251.7153 260.01417 265.55335 268.6019 273.5832 277.48854 280.25813 283.8546 284.13356 291.6055 297.1447 304.61668 310.15589 315.13719 319.0425 322.91798 325.68757 330.11097 337.08479 340.96025 345.38365 349.3089 352.9054 353.18434 357.60774 362.03114 369.00495 374.54417 379.52546 385.06468 392.03849 394.80809 399.23149 406.2053 410.6287 415.61 421.1492 426.68843 429.458 433.33348 436.10307 441.08436 446.61363 453.58744 459.12666 466.5986 472.9647 477.94599 483.4852 487.39054 492.92976 497.91105 503.7292 508.71049 512.61587 512.61587 517.59719 522.02059 529.49258 534.4739">Elleestmalgr&#x00b4;etoutvictorieusedansunemajorit&#x00b4;edepartiestest&#x00b4;eesdanslesconditionsdeTournoigr&#x02c6;aceau</tspan><tspan y="-466.077" x="72 75.87545 79.78079 85.867938 91.40714 95.830539 103.083309 108.064609 112.488 116.36345 119.13305 124.11435 129.65355 136.89636 141.31977 148.51277 154.05197 158.47537 165.72815 169.63349 174.05689 176.82649 182.36569 186.7891 194.0319 198.4553 206.75415 211.17755 216.15885 220.58225 228.33316 234.14136 238.56476 247.43148 250.20108 258.49995 264.3181 269.2994 273.20475 277.07026 284.82118 287.59077 295.8896 301.4288 305.33415 310.31544 313.36399 318.34529 323.8845 329.4237 333.8471 339.38633 343.29167">tridesactionsetdesreinese&#xfb03;cacepeuimportelaprofondeur.</tspan><tspan y="-448.14399" x="72 78.22662 80.99622 86.53543 89.57402 94.565288 100.09453 108.56274 112.43819 117.41949 122.958698 126.58508 126.86403 131.28743 139.79549 142.5651 152.13915 156.03452 160.46788 168.76673 171.53633 175.4616 179.885 188.34325 193.88245 196.65206 202.19126 206.61466 212.15386 216.05919 218.8288 222.75406 226.62952 229.39913 234.65938 240.19858 244.62198 253.13004 257.0055 261.4289 264.1985 266.96809 271.39149 279.90953 285.16978 290.70899 299.71519 302.48478 311.49098 317.03019 322.01148 330.04136 335.58058 339.4859 348.4921 354.0313 356.8009 361.7822 366.2056 370.08106 372.85066 377.83195 383.37117 391.8792 397.6974 402.67869 406.60395 410.5292 413.2988 418.838 421.6076 426.031 434.53907 440.07829 449.09446 451.86405 454.63365 459.61494 465.15415 470.13545 474.55885 478.46418 482.38945 487.37074 490.14033 494.04566 503.05186 508.03315 513.2934 521.7616 526.185 531.1663 536.7055">L&#x2019;ajout(apr`eslaremise)d&#x2019;heuristiquestellesquelenombred&#x2019;actionspossiblesdel&#x2019;adversaireontcon-</tspan><tspan y="-436.189" x="72 75.92526 78.69486 83.95512 84.23407 88.65746 92.562808 97.544109 103.08331 105.85291 110.276309 118.57515 122.99854 128.2588 135.46178 140.44307 148.46297 148.74192 153.16532 155.93492 158.70453 163.68582 167.31221 167.59116 175.3321 178.10172 182.52512 189.76793 193.40427 193.67325 198.09665 202.02191 207.56111 210.33072 214.20618 219.18747 223.06293 226.98819">sid&#x00b4;erablementam&#x00b4;elior&#x00b4;elesr&#x00b4;esultats.</tspan><tspan y="-418.25599" x="72 79.471958 85.01116 93.06094 98.042247 103.58145 107.4569 110.2265 118.525348 121.294948 125.22021 130.2015 134.07697 136.84658 141.82787 150.99346 156.53266 165.69824 170.12165 175.10294 177.87255 182.29595 187.83515 194.23114 199.77034 207.81017 211.74539 216.1688 221.15009 225.05542 233.09525 238.63445 246.68424 250.32057 250.58956 255.01296 259.99427 262.76387 267.74516 276.91075 282.171 284.94059 293.54826 296.31785 299.08744 301.85704 307.39625 311.81965 317.0799 320.95536 323.72496 329.26417 333.68757 338.66886 342.5443 345.3139 350.2952 359.4608 365 373.04978 376.09834 381.07963 384.98497 393.2838 401.3336 405.25886 408.02845 416.3273 421.86653 424.6361 432.68589 437.10929 444.6111 450.15034 452.91993 457.9012 463.44044 467.3159 471.22123 475.64463 483.19627 486.2448 491.2261 495.6495 499.52497 503.94837 509.48759 513.39297 520.94467 524.82009 530.0803 535.6195">Uneoptimisationducalculdescoreder&#x00b4;egionvial&#x2019;identi&#xfb01;cationdeformesimpleetd&#x2019;autresfacteurs(que</tspan><tspan y="-406.301" x="72 77.53921 82.52051 88.059719 95.00365 100.542858 103.312458 108.0148 112.9961 117.9774 123.51661 130.46054 135.99974 140.98104 147.92496 152.34836 160.90622 163.67583 171.11789 174.99335 179.41675 187.71559 193.25479 200.19872 205.73792 208.50753 211.27713 219.57598 225.11518 227.60584 227.88478 232.30818 240.60703 245.03043 250.30063 254.17609 258.5995 265.5235 273.82237 278.80366 281.57325 288.51719 293.77745 299.31666 306.75874 312.288 317.2693 322.8085 329.75245 335.29167 338.928 339.197 343.6204 347.54566 351.979 357.23927 361.11473 365.53813 369.44346 374.42475 379.96397 386.9079 391.8892 396.87049 399.64009 404.62138 409.88163 413.75709 416.52668 420.95008 427.87409 433.4133 438.3946 443.9338 450.87776 456.41697 464.97486 468.8802 473.86149 479.4007 485.21888 490.20018 494.1055 500.99964 506.5289 509.2985 514.8377 521.7817 524.5513 529.5326 535.0718">nousn&#x2019;avonspaseuletempsd&#x2019;impl&#x00b4;ementermaisquenouspr&#x00b4;esenteronsvolontierdansunrapportpluslong</tspan><tspan y="-394.346" x="72 74.7696 79.7509 83.65624 87.581508 92.84176 98.38097 106.1219 111.66111 116.64241 122.18162 129.43439 134.41568 139.95488 143.86022 148.8415 154.3807 161.62352 165.49898 169.92238 173.82772 182.12656 184.89617 190.15642 190.43537 194.85877 202.05178 205.97704 208.74665 217.04549 222.58469 225.3543 228.1239 233.6631 238.6444 243.90465 251.10762 255.53102 263.27195 267.69535 272.67665 275.44624 279.86964 285.40885 291.49598 294.26557 297.03517 302.01646 306.43986 310.59428 310.8732 315.2966 317.78724 318.06617 322.48957 326.3949 330.8183 334.72364 339.70494 342.47453 349.6675 353.59278 356.36238 361.34367 366.88288 369.65248 375.19169 379.61509 384.59638 388.47184 391.24143 396.22273 400.64613 408.94499 413.36839 418.62864 422.5041">lorsquenousauronstermin&#x00b4;e)simpli&#xfb01;antcecalcull&#x2019;acc&#x00b4;el`ereraitsigni&#xfb01;cativement.</tspan><tspan y="-376.413" x="72 82.042308 85.917758 90.34115 94.24649 102.545337 106.96873 112.44815 115.21775 122.211498 126.13676 130.56015 135.54145 139.44678 146.44054 151.97974 158.96353 162.59987 162.86885 167.29225 172.27355 175.04315 180.02445 188.134 193.1153 198.6545 202.52996 205.29956 213.5984 216.36801 220.01433 220.29328 227.28704 233.09523 238.07653 243.61573 247.52106 251.42639 256.40769 259.17729 265.62309 270.88334 271.16227 275.58567 280.00907 282.77867 287.75996 291.66529 296.08869 302.56437 305.33396 312.31776 317.29905 322.28034 327.26164 332.80085 337.78215 343.0424 349.4882 355.0274 362.02116 366.44456 370.86796 374.7733 378.64875 383.63005 386.39964 391.93885 396.36225 402.8479 408.38713 413.3684 417.27375 421.1492 423.9188 428.3422 434.8378 439.54014 444.25245 449.23374 454.494 460.9398 468.9597 469.23863 473.66203 481.96089 488.94468 494.20494 499.74415 506.73789 511.1613 515.58468 518.35427 521.12387 525.54727 529.47256 532.7901 537.2135">Aterme,lescoreder&#x00b4;egionoptimis&#x00b4;epourraitd&#x00b4;eclarerlegagnantdecertainespartiesavantm&#x02c6;emequecelles-ci</tspan><tspan y="-364.458" x="72 77.53921 80.30881 85.29011 88.05971 92.4831 97.743358 104.93635 109.369709 114.351009 122.64985 130.9487 135.3721 140.9113 145.05576 145.3347 149.7581 156.95111 164.42307 169.96227 177.70322 181.29972 192.09918 196.52259 201.50388 204.27349 208.69689 214.23609 217.00569 221.98699 227.24724 234.44025 238.86365 246.61457 250.53983 254.96323 259.94453 263.84986 271.5908 275.51606 279.93946 283.8448 288.82609 291.59568 298.79866 302.70399 307.68528 313.21455 315.98414 321.52336 329.27427 333.69767 340.89067 343.66026 351.68016 357.21937 362.20066 366.0761 369.95158 374.93287 380.47209 383.24168 387.66508">n&#x2019;aientcommenc&#x00b4;e.UneIAcalculantcescoreseraitrapideetimbattable.</tspan></text>
<text xml:space="preserve" transform="matrix(1 0 -0 1 0 792)" font-size="9.9626" font-family="CMR10"><tspan y="-72" x="303.509">6</tspan></text>
</g>
</svg>
