<?xml version="1.0" encoding="UTF-8" standalone="no"?>
<!DOCTYPE svg PUBLIC "-//W3C//DTD SVG 1.1//EN" "http://www.w3.org/Graphics/SVG/1.1/DTD/svg11.dtd">
<svg xmlns="http://www.w3.org/2000/svg" xmlns:xlink="http://www.w3.org/1999/xlink" version="1.1" width="612pt" height="792pt" viewBox="0 0 612 792">
<g enable-background="new">
<text xml:space="preserve" transform="matrix(1 0 -0 1 0 792)" font-size="17.2154" font-family="CMR17"><tspan y="-668.194" x="277.131 288.8547 296.75657 305.55363 314.79829 322.70014 328.79438">Rapport</tspan></text>
<text xml:space="preserve" transform="matrix(1 0 -0 1 0 792)" font-size="11.9552" font-family="CMR12"><tspan y="-633.32498" x="269.14604 277.43098 283.28904 289.79267 294.3476 300.20567 305.40617 311.26423 314.51603 323.02815 331.80326 337.33854 337.67329">BourgeoisNo&#x00b4;e</tspan><tspan y="-603.902" x="273.15803 279.01609 288.77156 294.30683 300.48768 305.0426 308.2944 315.4436 321.30168 327.15974 333.0178">26avril2021</tspan></text>
<text xml:space="preserve" transform="matrix(1 0 -0 1 0 792)" font-size="14.3462" font-family="CMBX12" font-weight="bold"><tspan y="-565.048" x="72.000019 83.663478 91.74039 100.26203 106.54567 113.90527 122.42692 128.71056">Contents</tspan></text>
<text xml:space="preserve" transform="matrix(1 0 -0 1 0 792)" font-size="9.9626" font-family="CMBX10" font-weight="bold"><tspan y="-543.13" x="72.000019 86.94391 91.287609 97.33491 101.78819 106.51047 112.55776 118.92387 125.28997 130.38086 134.83414 138.0122 143.7407 534.27206">1Introduction2</tspan><tspan y="-521.21206" x="72.00003 86.943927 97.58398 97.823078 103.073368 107.52665 113.89275 119.94005 126.30615 131.55644 534.27206">2M&#x00b4;ethodes2</tspan></text>
<text xml:space="preserve" transform="matrix(1 0 -0 1 0 792)" font-size="9.9626" font-family="CMR10"><tspan y="-509.25706" x="86.94403 91.92533 94.69493 109.85801 118.99371 121.76331 127.30252 130.07213 138.37097 143.35227 151.98984 159.74074 167.49164 175.24254 182.99344 190.74434 198.49524 206.24614 213.99704 221.74794 229.49884 237.24974 245.00064 252.7416 260.4925 268.24339 275.99427 283.74516 291.49604 299.24693 306.9978 314.7487 322.49958 330.25047 338.00135 345.75224 353.5031 361.254 369.00489 376.75578 384.50666 392.25755 400.00843 407.7593 415.5102 423.26109 431.01197 438.76286 446.51374 454.26463 462.0155 469.7664 477.51728 485.26817 493.01905 500.76994 508.51087 516.2618">2.1Minimax................................................</tspan></text>
<text xml:space="preserve" transform="matrix(1 0 -0 1 0 792)" font-size="9.9626" font-family="CMR10"><tspan y="-509.25706" x="535.121">2</tspan></text>
<text xml:space="preserve" transform="matrix(1 0 -0 1 0 792)" font-size="9.9626" font-family="CMR10"><tspan y="-497.30207" x="86.94403 91.92533 94.69493 109.85801 116.22411 121.205417 126.74462 130.64997 136.18917 141.17046 143.94007 151.41202 155.00852 161.79305 164.56266 169.265 174.2463 178.66971 190.7344 198.4853 206.2362 213.9871 221.738 229.4889 237.2398 244.9907 252.74161 260.49253 268.2434 275.9943 283.74519 291.49607 299.24696 306.99784 314.74873 322.4996 330.2505 338.00138 345.75227 353.50315 361.25404 369.0049 376.7558 384.50669 392.25758 400.00846 407.75935 415.51023 423.2611 431.00205 438.75294 446.5038 454.2547 462.00559 469.75648 477.50736 485.25825 493.00914 500.76 508.5109 516.2618">2.2TournoiAIPlayer...........................................</tspan></text>
<text xml:space="preserve" transform="matrix(1 0 -0 1 0 792)" font-size="9.9626" font-family="CMR10"><tspan y="-497.30207" x="535.121">3</tspan></text>
<text xml:space="preserve" transform="matrix(1 0 -0 1 0 792)" font-size="9.9626" font-family="CMR10"><tspan y="-485.34608" x="109.85803 114.83933 117.60893 122.59023 125.35983 141.73834 146.71964 152.25884 157.79804 161.70337 166.68466 169.73322 174.71451 180.25371 185.79291 188.56252 192.48778 196.41304 200.83644 209.13529 213.55869 218.82889 226.0219 228.7915 232.38802 232.66696 237.09037 240.9957 245.97699 249.85245 252.62206 260.48255 268.23344 275.9843 283.7352 291.48609 299.23698 306.98786 314.73875 322.48963 330.2405 337.9914 345.74229 353.48323 361.2341 368.985 376.73588 384.48677 392.23765 399.98854 407.7394 415.4903 423.24119 430.99208 438.74296 446.49385 454.24473 461.9956 469.7465 477.49739 485.24827 492.99916 500.75004 508.50093 516.25186">2.2.1approfondissementit&#x00b4;eratif..................................</tspan></text>
<text xml:space="preserve" transform="matrix(1 0 -0 1 0 792)" font-size="9.9626" font-family="CMR10"><tspan y="-485.34608" x="535.111">3</tspan></text>
<text xml:space="preserve" transform="matrix(1 0 -0 1 0 792)" font-size="9.9626" font-family="CMR10"><tspan y="-473.39109" x="109.85803 114.83933 117.60893 122.59023 125.35983 141.73834 159.73079 167.48169 175.22264 182.97354 190.72444 198.47534 206.22624 213.97714 221.72805 229.47895 237.22985 244.98075 252.73165 260.48255 268.23344 275.9843 283.7352 291.48609 299.23698 306.98786 314.73875 322.48963 330.2405 337.9914 345.74229 353.49317 361.24406 368.99494 376.74583 384.4967 392.2476 399.99848 407.74937 415.50025 423.25114 430.99208 438.74296 446.49385 454.24473 461.9956 469.7465 477.49739 485.24827 492.99916 500.75004 508.50093 516.25186">2.2.2m...............................................</tspan></text>
<text xml:space="preserve" transform="matrix(1 0 -0 1 0 792)" font-size="9.9626" font-family="CMR10"><tspan y="-473.39109" x="535.111">3</tspan></text>
<text xml:space="preserve" transform="matrix(1 0 -0 1 0 792)" font-size="9.9626" font-family="CMBX10" font-weight="bold"><tspan y="-451.47309" x="72.00003 86.943927 95.30254 95.54164 100.79193 105.31495 111.68105 114.85912 119.31241 124.8815 129.33478 534.27206">3R&#x00b4;esultats5</tspan><tspan y="-429.5561" x="72.00003 86.943927 95.730937 98.909008 103.43202 108.52291 114.889019 119.41203 123.93505 127.11312 132.84162 534.27206">4Discussion6</tspan><tspan y="-407.6381" x="72.00003 86.943927 95.22285 100.95134 107.317447 112.40833 115.5864 121.95251 126.475528 129.6536 135.3821 534.27206">5Conclusion6</tspan></text>
<text xml:space="preserve" transform="matrix(1 0 -0 1 0 792)" font-size="9.9626" font-family="CMR10"><tspan y="-72.00009" x="303.50904">1</tspan></text>
</g>
</svg>
