<?xml version="1.0" encoding="UTF-8" standalone="no"?>
<!DOCTYPE svg PUBLIC "-//W3C//DTD SVG 1.1//EN" "http://www.w3.org/Graphics/SVG/1.1/DTD/svg11.dtd">
<svg xmlns="http://www.w3.org/2000/svg" xmlns:xlink="http://www.w3.org/1999/xlink" version="1.1" width="612pt" height="792pt" viewBox="0 0 612 792">
<g enable-background="new">
<text xml:space="preserve" transform="matrix(1 0 -0 1 0 792)" font-size="11.9552" font-family="CMBX12" font-weight="bold"><tspan y="-710.037" x="72 78.73078 82.47276 102.653148 110.87833 117.60911 125.08111 130.5805 138.0525 144.78328 148.52526 158.68718 163.69641 172.88996 176.63193 182.80081 189.5316 195.66461">2.2TournoiAIPlayer</tspan></text>
<text xml:space="preserve" transform="matrix(1 0 -0 1 0 792)" font-size="9.9626" font-family="CMR10"><tspan y="-691.648" x="72 78.22662 86.12696 91.66617 95.57151 101.11072 104.14931 108.582668 115.93506 121.4643 124.2339 129.2152 134.7544 140.0246 140.29358 144.71698 152.61733 156.55255 164.4529 168.32836 172.75176 176.65709 184.95594 187.72554 193.26474 201.16509 206.70429 211.68558 219.06786 224.60706 233.61324 237.4887 242.46999 248.00919 251.91452 257.45375 262.43504 268.68159 273.94184 279.48106 285.7276 290.7089 295.6902 298.45979 305.8122 309.73747 312.50706 317.48835 323.29655 327.20188 332.18318 337.4534 341.32887 345.75227 353.13456 355.90415 360.32756 367.72978 376.02864 380.45204 383.22163 385.9912 388.7608 393.1842 398.72343 402.62876 407.05216 414.45439 418.05088 428.9998 434.539 438.9624 446.08567 446.3646 450.788 454.66346 460.20268 465.74189 468.51148 473.49278 478.75303 482.62849 486.55375 494.21498 501.68693 507.22615 515.12649 517.89608 520.66567 528.9645 531.7341 535.6095">Leprojetd&#x2019;ann&#x00b4;eesetermineparuntournoiquivoits&#x2019;a&#xfb00;ronterlesmeilleuresIAdes&#x00b4;etudiants.Unelimite</tspan><tspan y="-679.693" x="72 77.53921 85.28014 89.155597 93.57899 101.87783 107.41704 114.66981 122.6897 122.96865 127.392047 130.98856 131.2675 139.00846 144.54766 149.53891 149.80789 154.2313 161.98221 161.98221 170.28105 178.58986 182.51512 186.93852 191.36193 196.34322 201.88242 207.42162 215.16257 220.14386 225.68306 229.30945 229.5884 234.0118 241.25461 244.02422 248.44762 252.37288 257.63313 263.17234 267.59574 270.36534 273.13493 277.55833 284.8111 290.3503 295.88954 303.63047 307.22697 318.01646 322.43986 326.3651 333.28913 333.56806 337.99147 340.76106 343.53065 351.8295 354.5991 359.85935 360.13829 364.56169 372.3026 376.22789 382.32499 386.74839 389.51799 392.28758 400.0285 405.56773 408.3373 416.63615 422.17536 427.15666 434.40943 437.45799 442.43928 447.69953 447.97846 455.7194 461.2586 466.79783 474.53877 479.52006 483.94346 487.8189 490.5885 495.5698 501.109">detempsa&#x00b4;et&#x00b4;e&#xfb01;x&#x00b4;ee`a2secondeapr`eslesquellesuneIAest&#x00b4;elimin&#x00b4;eesiellen&#x2019;apasjou&#x00b4;euneaction.</tspan></text>
<text xml:space="preserve" transform="matrix(1 0 -0 1 0 792)" font-size="9.9626" font-family="CMBX10" font-weight="bold"><tspan y="-653.797" x="72 77.72849 80.90656 86.635059 89.813129 106.99861 112.5677 118.93381 125.29991 130.02219 135.75069 139.24756 144.97606 151.34217 157.70827 160.88634 165.40937 169.93239 175.18268 184.72686 189.97714 196.02445 204.30336 207.48143 211.6956 211.93471 217.185 221.90727 227.47637 231.92964 235.10771">2.2.1approfondissementit&#x00b4;eratif</tspan></text>
<text xml:space="preserve" transform="matrix(1 0 -0 1 0 792)" font-size="9.9626" font-family="CMR10"><tspan y="-635.408" x="72 78.22662 80.99622 84.59272 96.159297 100.06464 104.48803 108.63247 114.17168 118.59507 122.50041 126.654819 132.19402 140.71205 146.25125 151.23255 156.77175 165.28978 168.05939 176.58737 184.88622 189.30962 192.07923 194.84883 197.61844 202.04184 207.58104 215.58101 220.00441 224.9857 230.5249 240.15874 244.86109 249.85234 254.27574 262.79377 268.33299 273.8722 282.39024 287.92945 291.83479 296.81608 299.86463 304.84593 310.38514 315.92436 320.34776 325.88697 333.88694 339.42616 347.95414 357.03007 362.56929 368.1085 370.87809 374.80335 381.86683 385.74229 390.72358 395.98384 403.95393 409.21418 414.7534 423.27143 426.04103 434.569 438.44447 442.86787 451.16673 456.70594 464.72584 467.49543 475.79429 481.3335 486.3148 490.22013 494.09559 500.9598 506.49903 509.26863 513.692 517.6173 525.59738 531.13656 536.11788">L&#x2019;IArecherchedonclemeilleurcoupavecuneprofondeurde1puis,tantqueletempsimpartin&#x2019;estpas</tspan><tspan y="-623.452" x="71.723 72.00195 76.42535 80.84874 85.83004 91.36925 93.85989 94.13885 98.56224 104.64938 107.41898 112.95819 117.381587 121.00797 121.28693 125.71032 134.00917 138.43257 143.69283 147.56829 155.3192 158.0888 166.38765 171.92685 175.83219 180.81348 183.86203 188.84333 194.38253 199.92173 204.34513 209.88433 217.10721 221.53061 228.73358 232.63892 237.06232 241.48572 246.46701 254.76586 263.0647 267.4881 273.0273 277.4507 281.8741">&#x00b4;ecoul&#x00b4;e,incr&#x00b4;ementelaprofondeuretrecommence.</tspan></text>
<text xml:space="preserve" transform="matrix(1 0 -0 1 0 792)" font-size="9.9626" font-family="CMBX10" font-weight="bold"><tspan y="-597.557" x="72 77.72849 80.90656 86.635059 89.813129 106.99861">2.2.2m</tspan></text>
<text xml:space="preserve" transform="matrix(1 0 -0 1 0 792)" font-size="9.9626" font-family="CMR10"><tspan y="-579.167" x="72 79.61143 84.59273 90.131938 97.37474 100.14434 108.45315 111.5017 116.483 122.02221 126.4456 130.32106 133.09067 138.07196 146.92871 151.91 160.20885 168.50769 174.32584 179.30713 184.84633 192.06922 197.0505 202.0318 204.8014 213.10025 218.08155 224.17867 229.71787 234.69916 240.23836 247.48117 252.18352 257.1648 262.1461 267.6853 274.93809 280.4773 284.35276 287.12236 289.89195 292.66154 296.30784 296.58677">Danslafonction&#x201d;m&#x201d;pour&#x201d;aim&#x201d;,nousavonsutilis&#x00b4;e</tspan></text>
<text xml:space="preserve" transform="matrix(1 0 -0 1 0 792)" font-size="9.9626" font-family="CMBX10" font-weight="bold"><tspan y="-553.271" x="72 79.830608 84.55288 87.73095 94.09705 99.18794 102.36601 108.73212 114.30121 121.29495 129.00601 134.5751 139.29738 142.47545 148.04454 152.49782 155.67589 161.40439 171.58617 177.95227 183.20256 188.77165 193.49393 198.266 204.63211 210.36061 219.32695 224.57724 230.30574 235.87483 240.39786 245.48874 251.21724 257.58335">PrincipalVariationSearch/Negascout</tspan></text>
<text xml:space="preserve" transform="matrix(1 0 -0 1 0 792)" font-size="9.9626" font-family="CMR10"><tspan y="-553.271" x="272.014">:</tspan><tspan y="-535.338" x="72">&#x201d;</tspan></text>
<text fill="#0000ff" xml:space="preserve" transform="matrix(1 0 -0 1 0 792)" font-size="9.9626" font-family="CMR10"><tspan y="-535.338" x="76.9813 83.207927 91.47688 95.382228 99.80562 103.95006 109.489269 113.91266 117.818 121.96244 127.50165 135.2127 140.7519 148.46297 153.16532 158.1466 162.05194 164.82155 169.80284 173.6783 176.4479 181.4292 190.25606 195.79526 199.70059 202.4702 208.0094 212.4328 215.20241 220.74161 225.7229 228.49251">Larecherchedevariationprincipale</tspan></text>
<text xml:space="preserve" transform="matrix(1 0 -0 1 0 792)" font-size="9.9626" font-family="CMR10"><tspan y="-535.338" x="236.20357 240.07903 245.61823 250.59952 254.50485 257.5534 262.5347 265.3043 272.50727 277.48857 281.41383 285.33909 288.10868 296.41749 299.17713 301.67774 301.94673 306.38008 314.08119 319.06248 327.88935 335.3613 339.7847 344.766 349.74729 355.2865 359.7099 364.6912 370.2304 377.39353 382.93275 386.83808 391.81938 395.69483 398.46443 403.72468 409.2639 413.6873 421.98616 426.40956 431.6698 438.83293 441.6025 447.14173 451.56513 456.82539 460.70085 463.47044 468.73069 474.2699 481.98097 489.14408 493.56748 497.49275 504.6459 510.18513 519.01199 523.9933 526.7629 531.7442 536.7255">(parfoisassimil&#x00b4;eeauNegaScoutpratiquementidentique)estunalgo-</tspan><tspan y="-523.383" x="72 75.90534 78.67494 82.55039 88.0896 96.38844 103.34234 108.881549 113.30494 118.28624 123.26754 131.56639 136.54769 144.33844 149.5987 155.1379 160.438 166.25615 170.67955 176.21875 182.34575 182.6247 187.0481 190.92356 194.82889 201.78279 207.31203 210.08164 215.62084 222.0766 225.98194 230.96323 236.50243 239.27204 244.81124 251.76514 257.0254 262.5646 269.5185 272.2881 277.30924 277.58818 282.01158 284.78117 289.76246 294.74375 299.72505 304.70634 311.66023 316.6415 319.4111 324.95033 330.48954 335.47084 338.78837 344.0486 344.32756 348.75096 352.6264 360.13819 367.07215 374.26515 379.24644 387.5453 395.84416 402.79804 405.56764 408.05827 408.3372 412.7606 415.53019 420.51148 425.49278 430.47407 435.45536 442.40925 447.39054 450.16014 455.69935 461.23857 466.21986 469.53739 474.79765 475.07658 479.49998 483.37544 488.35673 493.81623 501.28819 505.71159 510.69288 515.6742 521.2134 525.6368 530.6181 536.1573">rithmenegamaxquipeut&#x02c6;etreplusrapidequel&#x2019;&#x00b4;elagagealpha-b&#x02c6;eta.Commel&#x2019;&#x00b4;elagagealpha-b&#x02c6;eta,NegaScout</tspan><tspan y="-511.428" x="72 76.42339 80.348659 88.21911 93.758319 103.28256 108.26386 111.03346 116.01476 120.99606 124.901409 127.671009 131.54647 137.08567 145.3845 153.80292 159.34212 167.76053 171.66587 176.08927 180.23372 185.77292 190.19632 194.10166 198.24611 203.78531 212.2037 217.7429 220.51251 224.41785 228.84125 233.26465 237.1401 239.90972 244.891 250.4302 255.9694 260.3928 263.16239 265.93199 274.35038 280.16856 285.14985 290.6791 298.57945 303.00285 307.98414 310.75373 315.17713 320.71635 323.48594 327.90934 335.80967 338.57926 347.55555 352.2579 357.2392 360.0088 364.4322 369.9714 377.87174 386.1706 388.9402 394.4794 397.249 405.54786 410.52915 419.77445 425.31367 428.08326 433.62248 443.15669 448.6959 456.4468 461.98603 471.52024 477.05946 482.04075 487.57997 495.49028 501.02949 510.5637 515.545 519.4503 524.9895 528.89486 537.31326">estunalgorithmederecherchedirectionnellepourcalculerlavaleurminimaxd&#x2019;unn&#x0153;uddansunarbre.</tspan><tspan y="-499.47303" x="72 75.5965 82.96882 88.508029 93.48933 101.78817 104.55777 110.09698 119.13306 121.90266 124.3933 124.67226 129.09566 131.86527 136.84656 141.82785 146.80915 151.79044 160.81656 165.79785 168.56746 174.10666 179.64586 184.62715 187.9447 193.20496 193.4839 197.9073 201.78276 211.37674 216.91594 221.89723 227.43643 235.96442 238.73403 247.77011 251.69538 256.11878 261.658 270.18598 275.44624 275.16728 285.31916 288.08876 295.46107 301.00028 303.76988 308.19328 313.45353 318.4348 326.73368 329.50328 335.04249 339.46589 343.37123 352.95524 356.00379 360.98509 369.28395 374.26524 377.03483 385.57276 391.11198 401.2539 406.79313 414.54405 420.08326 430.23515 435.4954 441.02467 448.40693 454.2251 458.6485 464.1877 472.38694 472.66587 477.08927 480.96473 484.87007 493.6272 493.90614 498.32954 501.09913 506.0804 511.0617 516.32199 516.60098 525.6271 531.16629 536.1476">Ildominel&#x2019;&#x00b4;elagagealpha-b&#x02c6;etadanslesenso`uiln&#x2019;examinerajamaisunn&#x0153;udquipeut&#x02c6;etre&#x00b4;elagu&#x00b4;epar</tspan><tspan y="-487.51805" x="72 76.9813 79.7509 85.29011 90.829319 95.810619 99.12816 104.38841 104.667369 109.09076 112.96621 117.94751 124.03465 128.45806 132.88146 138.6996 143.123 148.6622 154.2014 159.1827 164.44295 168.3184 174.41553 177.18514 183.2723 187.17763 191.60103 197.41918 202.40047 206.32573 214.06668 217.99195 223.53115 230.75403 236.29323 245.15995 250.14124 254.04657 259.5858 263.48118 271.2321 276.7713 280.39768 280.6766 285.1 289.5234 292.293 299.5358 305.075 309.4984 316.7512 322.2904 330.04133 335.58055 341.1098 348.36259 354.18077 359.16206 364.70127 371.92414 375.7996 378.56919 382.47453 386.89793 394.1208 399.66 404.6413 408.54664 412.4221 418.50923 424.04844 431.79936 436.22276 440.64616 447.83915 452.54148 457.25379 462.23509 467.49534 471.3708 476.35209 481.33338 485.75679">alpha-b&#x02c6;eta;cependant,ilreposesurunordrepr&#x00b4;ecisdesn&#x0153;udspourtirerpartidecetavantage.</tspan><tspan y="-469.58503" x="72 79.471958 83.89535 88.87665 93.85795 99.397159 103.82055 108.80185 114.34106 121.703418 124.75197 129.73326 135.27246 139.69586 143.57132 146.34093 151.32222 156.86142 162.40062 170.31093 178.60977 181.37938 185.80278 191.34198 200.08914 205.3494 210.8886 215.86989 221.40909 230.4352 233.2048 239.45136 248.19852 256.66673 262.20594 267.74516 275.65547 281.47364 286.45494 291.99415 297.53337 305.44367 309.86708 314.84837 323.14723 331.44609 336.42738 341.96659 347.5058 355.4161 360.95533 368.86564 373.28904 378.27033 383.80955 389.34877 393.27403 400.96516 407.7497 416.77583 422.31504 426.22038 431.20167 435.07713 437.8467 443.10697 448.64619 453.06959 459.36595 462.13554 464.90513 469.8864 473.79176 479.33097 483.2363 491.1466 496.68583 501.10923 508.5214 516.82028 521.8016 527.34078 532.3221 536.7455">NegaScoutfonctionnemieuxquandilyaunebonnecommandedecoups.Enpratique,l&#x2019;ordredesmouve-</tspan><tspan y="-457.63005" x="72 80.29884 84.72224 89.98249 93.85794 101.549068 105.97246 109.89772 117.53903 121.464298 126.445598 131.9848 136.96611 141.38951 146.64977 154.29109 159.55135 159.83029 164.2537 168.12915 172.55255 176.45789 184.75673 187.52634 192.78659 193.06554 201.24485 206.78404 211.76534 219.43654 224.97574 229.39914 237.09027 240.9956 245.419 249.56346 255.10266 259.52607 263.4314 267.57585 273.11506 277.53846 285.22959 290.21089 295.47114 299.06764 299.34657 303.76997 307.6753 310.4449 314.8683 320.4075 324.31285 328.73625 336.42738 344.72624 349.70753 352.4771 358.01634 365.69749 371.2367 375.14204 380.12333 383.17189 388.15318 393.69239 399.2316 403.655 407.58027 416.10826 419.70475 426.23023 431.76945 435.67478 440.93504 446.47425 452.01347 454.78306 462.42439 467.9636 470.72325 476.26246 483.95359 489.4928 497.68208 501.60734 506.03074 511.56996 514.33956 517.10916 524.79037 530.0506 535.5898">mentsestsouventd&#x00b4;etermin&#x00b4;epardesrecherchesant&#x00b4;erieuresmoinsprofondes.Ilproduitplusdeseuilsque</tspan><tspan y="-445.67506" x="72 74.7696 77.5392 82.5205 85.2901 90.82931 96.368518 101.349819 104.66736 109.92761 110.206569 114.62996 118.50541 127.601268 132.02466 141.6784 145.60367 151.14287 156.68207 162.50022 167.4815 171.40677 176.38806 181.64832 189.64829 194.90854 200.43778 208.98569 211.7553 220.29325 225.83245 229.73778 234.16118 242.46002 245.22963 249.65303 257.6729 263.21214 270.96305 276.50227 286.15605 290.57945 295.8397 301.3789 304.1485 309.1298 312.75617 313.0351 321.583 326.0064 329.93168 337.9217 340.69129 349.22926 357.5281 361.9515 364.7211 367.4907 370.26029 374.6837 380.2229 384.12825 393.71226 400.4968 410.15058 415.6898 418.45939 423.44068 428.9799 432.85536 436.76069 441.18409 449.23387 453.1093 457.5327 461.43806 469.7369 474.1603 478.08558 485.16899 489.59239 494.01579 496.78538 505.88124 509.8065 515.3457 520.8849 526.703 531.6843 535.6096">l&#x2019;alpha-b&#x02c6;etaensupposantquelepremiern&#x0153;udexplor&#x00b4;eestlemeilleur.End&#x2019;autrestermes,celasuppose</tspan><tspan y="-433.72007" x="72 77.260257 82.79946 90.6998 93.4694 101.3797 106.91891 110.82425 115.24764 123.546489 126.316089 130.73949 138.12177 143.66097 151.41187 156.95107 165.96721 170.40058 174.32584 181.67824 187.21744 192.19873 197.73793 205.14014 207.90975 216.37795 221.08029 226.06159 229.96692 232.73653 237.71782 242.97808 246.85353 254.76384 260.30305 264.20838 266.97798 272.51719 276.94059 279.71018 285.2494 290.23069 293.00028 297.42369 305.09489 311.87944 317.41865 321.3439 326.88313 329.6527 333.52818 337.95158 344.24794 347.01753 353.26408 359.08226 363.50566 369.04487 376.39729 381.37858 381.6575 386.0809 389.98625 392.75584 398.29505 402.71846 410.10075 414.03596 420.2825 424.7059 429.1293 431.8989 440.35716 444.78056 448.7058 456.06819 461.32844 465.23377 470.21507 476.4616 480.885 489.91114 493.81648 498.23988 502.3843 507.92353 512.3469 516.25228 520.3967 525.9359 530.91726 536.1775">quelepremiern&#x0153;udestdanslavarianteprincipale.Ensuite,ilpeutv&#x00b4;eri&#xfb01;ersicelaestvraienrecherchant</tspan><tspan y="-421.76408" x="72 74.7696 79.19299 87.45199 92.991199 100.742099 106.2813 111.82051 120.08947 123.99481 128.41822 132.34348 136.21894 141.20023 146.46048 150.33594 158.59493 163.29727 168.28853 172.71193 181.46906 187.00826 192.54746 201.30458 204.35314 208.77654 214.03679 214.31574 218.73914 222.6146 226.51993 235.27706 240.54726 246.08646 248.85607 251.62567 260.3828 263.9793 264.25825 268.68165 273.66294 278.64424 281.41383 285.83723 294.13609 298.55949 303.81974 312.02894 317.01023 322.54945 328.3676 332.79103 335.28166 335.56059 339.98399 348.75108 351.79963 356.22303 361.48329 361.7622 366.1856 370.06108 373.9664 382.72355 388.26277 397.0199 400.92524 405.34864 409.77204 414.75334 420.29255 425.83177 430.81306 433.58265 437.5079 441.43318 446.41447 451.95368 456.37709 460.80049 468.4119 471.1815 476.16279 480.0681 483.99339 489.25364 494.79286 503.55995 508.54124 511.31083 516.85006 522.3892 531.7043 536.1277">lesn&#x0153;udsrestantsavecunefen&#x02c6;etrenulle(&#x00b4;egalementappel&#x00b4;eefen&#x02c6;etredereconnaissance;lorsquealphaet</tspan><tspan y="-409.80909" x="72 77.260257 77.53921 81.9626 85.83805 94.68484 98.6101 103.5914 108.851657 116.3236 116.59259 121.01598 125.997287 130.97858 136.51778 141.77803 145.65349 152.42806 156.85146 165.14035 170.4006 175.9398 182.5749 186.9983 190.92357 198.66452 204.20372 206.97333 212.51253 220.31325 224.20862 229.19988 234.72911 237.49872 243.03792 251.33678 256.59703 262.12629 270.42515 273.19474 282.0415 285.94685 290.37025 294.51469 300.0539 304.4773 308.38264 312.52708 318.06629 326.35517 331.06748 336.04878 340.47218 348.76106 351.53065 360.3774 363.42597 367.84938 373.10963 373.38856 377.81196 381.6874 385.59275 393.88163 398.8629 401.6325 407.17173 412.71095 417.69224 421.00978 426.27003 426.54896 430.97236 434.8478 443.69459 449.2338 454.2151 458.12043 466.41929 471.40058 474.17018 478.59358 487.4304 492.9696 499.60469 502.37428 511.22105 516.76028 520.6656 525.089 530.6282 535.6095">b&#x02c6;etasont&#x00b4;egaux),cequiestplusrapidequelarechercheaveclafen&#x02c6;etrealpha-b&#x02c6;etanormale.Silapreuve</tspan><tspan y="-397.8541" x="71.723 72.00195 76.42535 80.569789 86.10899 91.090297 96.6295 101.052898 107.11015 112.09145 114.86105 119.842357 123.747699 130.95066 133.72026 141.42136 146.96056 150.86589 155.28929 163.58814 166.35774 170.78115 177.96417 183.50337 191.25428 196.78351 205.6004 211.1396 213.63027 213.90921 218.33261 222.20807 227.18936 229.95897 237.11212 242.65132 247.63262 254.83557 260.3748 265.35609 270.8953 278.09828 280.86787 289.12687 293.82923 298.81053 302.71586 305.48545 310.46675 315.727 319.60246 327.30357 332.84278 336.7481 339.5177 345.05693 349.48033 352.2499 357.78913 362.77043 365.54 373.24113 377.66453 384.8177 387.58729 395.84629 399.75163 404.17503 408.31947 413.85868 418.28208 422.1874 426.33186 431.87107 439.57218 443.49745 451.19856 457.01673 461.99803 467.53724 471.44258 475.36784 480.90705 483.67665 490.8298 495.2532 500.2345 508.53337 516.8322 524.5333 530.0725 535.6117">&#x00b4;echoue,alorslepremiern&#x0153;udn&#x2019;&#x00b4;etaitpasdanslavarianteprincipaleetlarecherchesepoursuitcommeune</tspan><tspan y="-385.8991" x="72 76.9813 79.7509 85.29011 90.829319 95.810619 99.12816 104.38841 104.667369 109.09076 112.96621 121.384609 126.92381 131.9051 135.81044 144.10929 149.09058 151.86019 156.28359 163.83524 170.35077 175.33206 182.6745 187.0979 192.0792 197.6184 201.26471 201.54366 205.96706 211.22731 216.76651 221.18991 226.45017 230.32563 236.56221 244.03417 248.45757 253.43886 258.42018 263.95939 268.38279 273.36408 278.9033 286.2258 289.2644 294.2457 299.7849 304.2083 308.08378 310.85337 315.83467 321.37388 326.9131 334.78355 343.0824 345.852 350.2754 355.8146 364.51197 367.28157 372.26286 376.16819 380.09346 385.3537 390.8929 398.75343 401.523 404.2926 409.2739 413.17924 418.71846 422.62379 430.48429 436.0235 440.4469 447.8192 456.11808 461.09938 466.63859 471.61988 476.04328 484.34214 488.76554 494.0258 497.90126 505.2636 509.687 513.62228 520.93478 526.75289 531.7342 537.2634">alpha-b&#x02c6;etanormale.Parcons&#x00b4;equent,NegaScoutfonctionnemieuxlorsquel&#x2019;ordredesmouvementsestbon.</tspan><tspan y="-373.94413" x="72 79.471958 84.453258 88.87665 96.80688 102.346088 111.39213 116.37343 120.27877 125.81798 129.72332 137.65355 143.19275 151.11302 156.38323 156.6522 161.0756 166.6148 169.38442 174.3657 178.78911 183.21251 191.52132 195.94472 201.20497 208.58727 213.56856 216.05922 216.33817 220.76157 225.74286 229.61832 234.59961 237.36922 241.27455 245.69795 252.01425 259.4862 263.9096 268.8909 273.8722 279.4114 283.8348 288.8161 294.35533 301.7376 307.27684 311.18217 315.60557 321.14479 326.684 330.58934 339.07746 344.60673 347.3763 352.91554 360.34764 365.88685 373.81709 377.69255 382.11595 390.4148 395.954 403.3861 408.64637 414.18559 422.1158 424.8854 427.655 432.6363 435.40589 440.9451 446.4843 451.4656 454.78315 460.59135 465.01475 468.8902 477.37834 481.80174 484.57133 489.5526 493.47789 497.40315 500.17274 505.43299 510.9722 515.39559 521.76168 527.30087 530.07046 534.49386">Avecunordreded&#x00b4;eplacemental&#x00b4;eatoire,NegaScoutprendraplusdetempsquel&#x2019;alpha-betaclassique;bien</tspan><tspan y="-361.98814" x="72 77.260257 82.79946 85.56906 88.33866 94.425807 99.96501 102.73461 107.158008 112.41826 117.957469 120.727069 125.70837 129.61371 137.35466 142.33596 147.87516 152.29856 157.83776 166.70447 172.24367 179.99457 185.53377 194.39052 199.65077 205.18997 207.95958 212.94087 215.71048 221.24968 226.78888 231.77017 235.08773 240.90587 245.32927 249.20473 257.50358 263.0428 265.81239 274.1112 279.65043 284.6317 291.8845 294.9231 299.9044 302.67399 306.54945 312.64656 315.41615 321.50328 327.04249 331.46589 336.72615 340.63148 348.9303 352.83564 357.25904 360.57658 364.4819 368.9053 373.05973 378.59895 383.02235 386.92768 391.0721 396.61134 401.03474 408.2576 413.7968 421.54774 427.08695 432.06825 440.08815 445.62736 449.53269 453.9561 459.4953 468.0731 473.6123 481.36323 486.90245 492.44166 496.3669 499.1365">qu&#x2019;iln&#x2019;exploreaucunn&#x0153;udqu&#x2019;alpha-betan&#x2019;apasfait,ildevrare-rechercherdenombreuxn&#x0153;uds.&#x201d;</tspan></text>
<text xml:space="preserve" transform="matrix(1 0 -0 1 0 792)" font-size="9.9626" font-family="CMBX10" font-weight="bold"><tspan y="-336.09315" x="72 79.013668 83.73594 91.46692 97.83302 103.08331 112.15924 117.72833 122.81922 127.27251 130.45058 136.17908 142.54518 151.62111 158.30602 164.03452 168.55754 173.08057 176.25864 182.62474 185.80281 191.0531 195.57613">Tridesactionspossibles:</tspan></text>
<text xml:space="preserve" transform="matrix(1 0 -0 1 0 792)" font-size="9.9626" font-family="CMR10"><tspan y="-336.09315" x="208.718 215.22359 220.20488 225.74408 233.61454 238.59583 244.13503 248.01049 250.78009 259.07896 261.84855 265.7738 270.1972 278.05769 280.82728 289.7637 293.66905 298.09245 302.24687 307.78608 312.20948 316.1148 320.25926 325.79847 334.177 339.71623 348.10475 353.64396 358.06736 363.04866 368.02995 371.9552 376.3786 381.3599 386.8991 394.7297 397.4993 406.4457 409.2153 411.9849 415.91017 419.7856 428.16416 433.70338 438.12678 446.01716 450.99845 455.42185 459.2973 462.0669 467.0482 472.5874 480.4678 484.8912 488.81648 496.65705 500.5325 504.4279 506.9285 507.19749 511.63084 520.00936 525.5485 530.52987 536.06906">Pouroptimiserlarecherchedenegascoutlalistedesactionsesttri&#x00b4;eedans</tspan><tspan y="-324.13716" x="72 74.7696 83.4271 86.475658 91.456958 96.99616 101.419559 105.295009 108.064609 113.045909 122.261318 127.242618 132.2239 134.99352 143.29236 148.27365 156.18396 158.95357 163.37697 170.97843 176.51763 180.94103 184.86629 188.74175 191.51136 197.05055 202.03185 205.9073 208.67691 213.6582 219.1974 226.79886 232.33806 240.43766 248.7365 253.71779 259.257 264.23829 268.66169 276.96055 281.38395 286.6442 294.19587 298.61927 306.17094 311.43119 311.7101 316.1335 320.27796 325.81718 333.91679 338.89808 344.4373 347.48585 352.46714 356.89054 361.31394 366.58418 370.45964 374.88304 382.4845 382.4845 391.142 396.6812 402.21049 410.32005 414.21543 418.64878 421.41838 426.94764 435.04725 439.4806 445.00987 450.54908 454.97248 463.28129 466.05088 474.15049 478.07575 483.05705 488.3173 495.86897 501.40818 504.17778 509.15907 513.3035 513.5825 518.0059 522.4293 530.0308 534.4542">lafonction&#x201d;aim&#x201d;:lesdestinationsdemouvementet&#xfb02;`echeadjacentes`aunereineennemiesontplac&#x00b4;eesen</tspan><tspan y="-312.18217" x="72 77.260257 77.53921 81.9626 87.50181 93.041019 100.23401 105.77322 113.52412 116.29372 119.06332 122.98858 126.86403 131.28743">d&#x00b4;ebutdeliste.</tspan></text>
<text xml:space="preserve" transform="matrix(1 0 -0 1 0 792)" font-size="9.9626" font-family="CMBX10" font-weight="bold"><tspan y="-286.28617" x="72 80.78701 83.96508 89.05597 93.509258 96.687328 102.41582 108.78192 115.148029 120.71712 123.89519 128.61746 137.68343 144.04953 147.2276 152.79669 157.24997 162.50026 168.06935 174.43546 180.16396 185.73305 190.82395 195.27722 198.45529 204.18379 210.5499 218.89856 225.5735 231.302 235.82503 240.34806 243.53609 249.90219 253.08026 258.33058 262.85359">Dictionnaireplateau/actionspossibles:</tspan></text>
<text xml:space="preserve" transform="matrix(1 0 -0 1 0 792)" font-size="9.9626" font-family="CMR10"><tspan y="-286.28617" x="276.00599 282.2326 287.2139 291.11924 298.36204 303.90126 308.32466 315.56745 319.4927 322.2623 330.29219 335.8314 338.60099 343.58229 347.44779 350.21739 355.19868 360.73789 364.66316 370.76026 374.9047 380.4439 385.4252 390.68547 396.22468 403.9656 409.50483 412.2744 417.2557 421.13117 425.55458 430.53587 439.3926 443.29795 447.72135 453.26057 457.68397 462.66526 467.9255 471.80097 475.42735 475.70628 483.4472 487.8706 495.07359 497.84318 502.26658 509.50938 514.49069 518.91409 522.7895 525.5591 530.5404 536.0796">Lorsdessimulations,chaqueplateaurencontr&#x00b4;eetlesactions</tspan><tspan y="-274.33119" x="71.999988 77.818149 82.799449 86.72471 90.64997 93.41957 98.95878 101.72838 106.15177 112.468059 116.40328 121.38458 126.64484 132.91132 137.33472 142.87392 146.77925 151.20265 156.18395 158.95355 162.87882 166.75428 170.39061 170.65959 175.083 179.5064 185.83264 191.37184 196.35314 201.89234 208.21858 213.75778 221.688 227.2272 229.99681 234.42021 238.29567 241.06528 246.04657 251.58577 257.12498 262.10627 264.87586 268.7812 275.6056 280.58689 286.1261 294.05635 299.59556 306.41996 311.95918 318.78358 324.32279 327.09239 332.6316 338.94789 344.4871 348.9105 353.90177 358.88307 361.65266 367.949 371.85435 376.27775 380.70115 385.68244 393.9813 402.28016 406.70356 412.24278 416.66618 421.08958 427.3959 430.1655 437.5478 441.45314 445.87654 450.02098 455.56019 459.98359 463.88893 468.03337 473.57258 480.39698 480.39698 487.77928 490.5389 497.9212 503.46043 507.36576 512.626 516.77047 522.30966 527.29098 530.06057 535.59976">possiblessontenregistr&#x00b4;eesdansundictionnairea&#xfb01;ndeneplusdevoirrecommencerlarecherche`alaprochaine</tspan><tspan y="-262.3762" x="71.999988 75.90533 80.32872 85.86793 90.29132 95.27262 100.532878 104.408329 108.31367 112.73706">rencontre.</tspan></text>
<text xml:space="preserve" transform="matrix(1 0 -0 1 0 792)" font-size="9.9626" font-family="CMBX10" font-weight="bold"><tspan y="-236.4802" x="71.999988 80.358608 80.5977 85.84799 91.576488 94.754558 100.48305 106.84915 115.2277 120.47799 128.79677 135.81044 140.53272 147.57628 153.94239 159.18271 167.57123 172.2935 177.5438 180.72187 187.08797 192.33826 196.86128">R&#x00b4;egionsetTridesreines:</tspan></text>
<text xml:space="preserve" transform="matrix(1 0 -0 1 0 792)" font-size="9.9626" font-family="CMR10"><tspan y="-236.4802" x="209.99698 217.46894 223.00814 230.78893 234.66439 239.64568 248.54227 254.08147 256.85108 262.3903 266.31556 269.08515 273.50856 279.04777 282.9531 286.87837 294.1112 298.5346 303.5159 307.44117 315.22196 317.99156 321.9168 326.8981 329.38874 329.66767 334.09107 341.87187 347.41108 356.29774 360.20307 364.62648 368.55174 372.4272 380.20799 385.7472 394.6438 400.183 402.9526 407.9339 411.80937 416.23277 421.21406 430.11067 435.64988 440.63117 447.8939 453.4331 457.8565 465.13917 470.3994 470.67835 475.10176 479.2462 484.7854 489.2088 496.49147 499.54 504.5213 508.42665 516.72549 524.5063 530.0455 535.58468">Une(ouplusieurs)caseisol&#x00b4;eeduresteduplateaupardes&#xfb02;`echesformeune</tspan><tspan y="-224.52519" x="71.999988 75.62637 75.90533 80.32872 85.31002 88.07962 93.06092 98.60013 105.65365 113.125598 118.6648 125.97735 129.60375 129.88269 134.30609 139.28739 142.05699 147.03829 155.46665 161.00585 163.77545 169.31465 177.74301 183.28221 188.2635 196.2834 201.8226 205.72794 213.05045 218.58965 225.9022 230.3256 235.3069 239.23217 243.65557 250.46999 258.89836 263.32176 267.247 274.01164 279.28187 279.55085 283.97425 287.0228 291.4462 295.8696 299.74507 302.51466 307.50593 314.81849 318.74375 324.4025 329.9417 335.48094 342.7935 346.69883 351.12223 353.8918 359.43104 366.7436 372.2828 379.59538 385.41355 389.83695 395.37617 402.14079 407.68 412.6613 419.4757 427.62513 432.04853 437.85673 442.29008 446.71348 450.58894 456.12815 460.55155 467.34605 475.7744 480.7557 485.1791 489.05458 491.82417 496.80546 502.34468 506.26994 513.3234 518.8626 524.52139 530.06057 535.59976">r&#x00b4;egion.Uner&#x00b4;egiond&#x2019;unnombredecasesnestd&#x00b4;efectivesiunereinenepeutpasye&#xfb00;ectuernactions.Siune</tspan><tspan y="-212.57019" x="71.999988 75.62637 75.90533 80.32872 85.31002 88.07962 93.06092 101.409587 104.45814 109.43944 113.34478 121.64362 128.87647 134.41567 139.95487 147.18772 149.95732 152.72693 157.70822 163.24742 167.67082 173.3495 178.8887 187.23735 191.14269 195.56609 199.98949 203.86495 208.84624 214.38544 219.36673 222.13634 229.36919 234.35048 242.69913 248.23833 256.58699 260.46244 264.36778 267.13737 272.11866 277.65788 282.63917 285.40876 289.83216 295.52079 299.39625 302.15589 305.20445 310.18574 314.09107 322.38993 326.81333 333.558 337.48329 340.25288 348.55174 354.09095 356.86054 361.28395 365.2092 371.8941 376.3175 383.0024 387.4258 392.4071 397.66737 401.54283 404.3124 408.7358 413.99607 420.68098 426.22019 431.7594 438.99226 442.9175 447.3409 452.88014 455.64973 462.88258 466.7879 471.2113 473.9809 479.5201 483.9435 489.63215 492.40174 500.19248 505.7317 510.1551 514.0305 518.4539 522.8773 526.75277 529.52236 534.50369">r&#x00b4;egionformeuneligne,unrectangleouuntriangle,(:formessimples)etcontientuneseulereine,ladetection</tspan><tspan y="-200.61519" x="71.999988 77.53919 85.95759 89.58398 89.86293 94.28632 99.267627 102.037227 107.018527 116.54277 122.08198 127.06328 136.59748 141.85773 142.13668 146.56008 150.43553 154.85894 159.28234 163.15779 165.9274 170.9087 179.32712 184.85636 189.84761 195.10787 202.96837 205.73798 208.50759 211.27719 219.57604 225.11524 227.6059 227.88484 232.30825 240.60709 245.03049 250.29074 254.1662 259.1475 263.02296 265.79255 270.77384 280.0291 280.30805 284.73146 288.6069 293.5882 296.3578 304.22825 309.76747 314.19087 322.48973 327.471 333.01023 338.27049 338.5494 342.9728 351.38127 357.19944 362.18074 367.71995 375.61033 378.3799 387.3562 392.89543 397.8767 401.78205 405.6575 408.4271 416.8455 425.81184 431.63 436.0534 439.95875 448.2576 452.681 460.55146 466.09068 474.4991 479.75938 480.0383 484.4617 488.33717 492.76057 496.6659 504.96476 507.73435 513.27359 517.69699 525.5973 529.5226 534.5039">der&#x00b4;egionnond&#x00b4;etectivedontl&#x2019;impl&#x00b4;ementation&#x00b4;etaitdemand&#x00b4;eepourlapartie3permetded&#x00b4;eterminerson</tspan><tspan y="-188.6592" x="71.999988 75.92525 80.34864 85.32994 89.23528 93.658679 103.29251 109.519138 118.63491 124.17412 133.8478 139.387 147.94487 153.48407 158.46537 162.3707 166.24616 169.01576 177.57364 183.39179 187.81519 193.35439 201.36432 206.90352 211.88481 217.42401 225.70294 225.98189 230.40529 234.28075 238.18608 246.74396 251.72525 256.9855 260.86097 263.63056 268.05397 270.82356 276.0838 276.36274 280.78614 285.20954 294.84336 303.97908 308.96037 311.72996 319.7897 322.5593 326.9827 335.04246 338.6788 338.94779 343.3712 348.35249 351.12208 356.10337 361.64259 369.70234 375.24156 380.22285 389.89656 395.1568 395.43574 399.85914 402.90769 407.3311 411.7545 415.62995 418.39955 423.3908 427.8142 435.87397 439.79924 444.78053 450.04078 458.05073 461.95606 466.93736 470.84269 475.26609 483.56495 487.98835 493.2486 501.25856 506.79777 515.35568 518.40426 523.38558 527.2909 535.5897">score.La&#xfb01;ndepartiepeutdonc&#x02c6;etreanticip&#x00b4;ee.Maislesr&#x00b4;egionsnond&#x00b4;efectivessontrarementdeforme</tspan><tspan y="-176.7042" x="71.999988 75.92525 78.69485 86.99369 92.5329 95.3025 99.72589 106.70967 112.24888 117.23018 122.76939 130.7295 135.4418 140.42311 145.4044 150.9436 158.90372 164.44292 169.42421 174.96341 183.42166 186.19127 194.49011 200.02931 202.52993 202.7989 207.2223 215.52115 219.94455 225.21475 228.81127 229.09021 237.54846 237.54846 246.5646 249.33422 258.35038 263.8896 266.65919 271.64048 276.06388 280.48728 287.48103 293.02024 302.5943 307.0177 312.55693 316.48219 320.90559 328.92549 334.4647 337.23429 345.69255 351.23176 359.69999 362.74855 367.72984 373.26905 377.69245 381.5679 384.3375 389.3188 394.858 402.8181 407.24153 412.2228 414.9924 419.4158 424.95503 427.7246 432.7059 437.96617 445.87648 448.64607 457.1143 461.03956 465.46296 470.44425 474.34959 482.80784 488.34706 491.11665 496.65586 502.19508 510.65333 514.2797 514.5587 518.9821 523.96347 526.73306 531.71438 537.25357">simple,nousavonsdoncimpl&#x00b4;ement&#x00b4;e`alaplace,unensembledefonctionscalculantlescored&#x2019;uner&#x00b4;egion,</tspan><tspan y="-164.74919" x="71.999988 77.26024 77.53919 81.962589 85.01114 89.43453 93.857929 97.733379 100.502979 105.484279 112.806789 117.788089 126.22641 131.76561 136.7469 142.2861 148.0445 152.4679 157.44919 162.70944 166.5849 171.0083 176.5475 181.5288 186.78905 193.56363 199.10283 204.64203 211.96454 216.94583 225.3941 230.9333 233.69295 239.23215 243.16738 245.92702 250.36038 255.88962 259.79496 266.6293 270.53465 274.95805 277.72764 283.26686 287.69026 291.6155 298.669 306.14097 311.12226 316.66148 323.48585 329.02507 336.34757 339.11717 341.88676 346.58909 351.58036 356.56166 362.10087 368.92524 374.46446 379.44575 386.2701 389.89649 390.1754 394.59883 400.13804 404.0135 406.78309 409.55268 412.32228 415.96858 416.2475 420.6709 427.9934 433.81159 438.79289 444.3321 451.13655 457.49269 462.47398 468.01319 471.91853 477.45774 482.43904 485.20863 492.68058 496.27708 503.0616 505.8312 510.54353 515.52487 519.94827 526.7527 531.1761 536.1574">d&#x00b4;efectiveounon,contenantuneouplusieursreines.Nousnel&#x2019;avonspasr&#x00b4;eutilis&#x00b4;eepourTournoiAIPlayercar</tspan><tspan y="-152.79419" x="71.999988 76.42338 84.10454 87.97999 92.40338 100.702228 106.24143 113.414508 118.95371 126.63487 131.05828 136.03957 138.80918 143.23258 148.77178 154.78919 159.21259 163.13785 170.27108 176.07927 181.06056 184.93602 189.35942 194.62963 198.50508 201.27469 205.69809 208.4677 211.2373 215.6607 223.95955 228.38295 233.6432 240.76647 246.30567 251.28696 260.08396 263.9893 268.97059 271.74018 275.66545 280.64674 286.18595 291.72517 296.70646 302.24568 305.01527 309.43867 316.61174 322.15095 328.16835 333.70756 339.24678 346.92796 350.83329 355.25669 358.02629 363.5655 371.2367 375.6601 382.84315 385.61274 389.538 394.5193 397.00993 397.28886 401.71226 406.13566 412.16304 417.70225 423.24147 430.92265 435.90394 440.32734 444.2028 446.97239 451.95368 460.7407 466.2799 473.9611 477.88636 486.11546 491.65467 496.63597 500.5413 507.67454 513.21377 520.88497 523.93356 528.35696 532.26229 537.2436">cetempsdecalculestpotentiellementnonraisonnable.Siunereineesisol&#x00b4;ee,uneactiondesapartnefera,</tspan><tspan y="-140.83919" x="71.999988 76.981288 85.51923 93.81808 96.58768 101.01107 106.55028 111.81053 117.64861 122.90887 128.44808 135.87023 139.49662 139.77556 144.19896 149.73816 155.27736 158.04697 161.9523 169.37445 172.14406 180.13407 184.00952 188.99082 191.76042 194.53003 197.29964 204.72179 210.26099 217.68314 221.6084 229.59839 233.22478 233.50373 237.92713 242.90842 245.67803 250.65932 259.19728 263.62068 270.49488 276.0341 281.01539 286.5546 293.97676 297.91197 302.89326 311.4312 315.35649 319.77989 324.76118 328.6665 336.08866 341.62788 349.05003 354.0313 359.8694 364.85069 373.38865 378.92787 381.69746 385.60279 390.02619 395.86427 400.28767 403.05726 405.82685 413.249 419.06718 424.04847 429.58769 433.493 437.39836 442.37965 445.14924 452.02345 457.56266 460.33226 465.31355 469.73695 474.16035 481.07438 484.99964 492.97969 498.5189 502.9423 507.08674 512.6259 520.04806 525.5872 530.56857 536.1077">aumieux,quer&#x00b4;eduirelatailledesar&#x00b4;egionetdoncsonscorede1,aupire,ellepourraitplacersa&#xfb02;echedans</tspan><tspan y="-128.88419" x="71.999988 77.53919 86.97378 91.95508 96.93638 102.475589 105.245189 109.66858 117.43941 122.978618 125.46926 125.748218 130.17162 134.04708 137.95241 142.9337 148.46294 153.44423 156.21384 160.63724 168.94605 173.36945 178.6297 186.40053 190.82393 198.5848 204.124 206.8936 212.15386 214.92346 218.84873 223.27213 231.07283 234.9981 243.87476 247.50115 247.78009 252.20349 257.18479 259.95439 264.93568 274.37028 278.79368 288.22828 293.7675 296.53709 302.0763 306.00157 308.77116 313.19456 318.73377 322.6391 330.44978 334.38499 339.36628 344.9055 352.71617 356.3525 356.6215 361.0449 366.02619 368.79579 373.77708 379.31629 387.13694 392.67616 397.65745 402.9177 410.68855 413.45814 417.88154 425.70219 431.2414 436.2227 441.7619 446.7432 451.1666 456.1479 461.6871 470.84275 474.768 479.1914 484.1727 488.07804 492.50144 500.32209 504.24736 509.22865 514.4889 522.2597 527.7989 530.5685 536.10769">ungouletd&#x2019;&#x00b4;etranglementetdivisersar&#x00b4;egionenplusieurssousr&#x00b4;egionsdontlesnouveauxscoressontplus</tspan><tspan y="-116.928188" x="71.999988 77.818149 82.24154 86.11699 88.88659 92.76204 100.11443 105.65364 108.42324 113.40454 122.37088 130.66973 135.65102 138.42063 143.95983 151.31223 156.85143 159.62104 165.16024 172.5226 178.05184 185.91234 190.89363 198.4154 205.19994 207.96955 210.73915 218.58969 223.01309 226.93836 234.24095 239.78015 244.76145 250.30065 258.15119 263.6904 266.46 271.44129 275.5957 275.8647 280.2881 288.1486 292.572 301.53834 306.79859 312.3378 316.7612 322.3004 330.15095 335.69017 343.54069 346.31028 349.07987 353.00514 356.88059 364.7411 370.2803 374.7037 382.0561 385.96144 390.38484 393.15443 398.69364 403.11705 410.46943 416.00865 424.97499 428.02354 433.00483 438.54405 442.96745 448.50666 455.8391 460.8204 466.35963 475.33595 480.58625 486.12547 488.89506 493.31846 496.08805 498.85765 506.71815 512.2573 515.0269 520.00827 524.98959 527.75918 531.68447 535.60977">petitsd&#x2019;aumoinsplusde1.Elleestdoncplac&#x00b4;eeenqueuedelistedesreinesdujoueura&#xfb01;nqu&#x2019;ellen&#x2019;agisse</tspan><tspan y="-104.97318" x="71.999988 77.26024 82.799449 85.569049 89.99244 98.84919 104.3884 108.81179 112.71713 118.25634 121.02594 125.44933 132.68219 136.57756 141.01093 145.43433 150.41562 155.95482 159.86016 163.73561">qu&#x2019;endernierrecourt.</tspan></text>
<text xml:space="preserve" transform="matrix(1 0 -0 1 0 792)" font-size="9.9626" font-family="CMR10"><tspan y="-72.00018" x="303.50898">3</tspan></text>
</g>
</svg>
